<?xml version="1.0" standalone="no"?>
<!DOCTYPE svg PUBLIC "-//W3C//DTD SVG 1.1//EN" "http://www.w3.org/Graphics/SVG/1.1/DTD/svg11.dtd" >
<svg xmlns="http://www.w3.org/2000/svg" xmlns:xlink="http://www.w3.org/1999/xlink" version="1.1">
<metadata>
Created by FontForge 20161013 at Sat May 17 19:52:58 2008
 By ,,,
[c] Copyright 2000-2003, The Font Bureau, Inc. Designed by Cyrus Highsmith, Tobias Frere-Jones, and Font Bureau. All rights reserved.
</metadata>
<defs>
<font id="BentonSans-Regular" horiz-adv-x="760" >
  <font-face 
    font-family="BentonSans"
    font-weight="400"
    font-stretch="normal"
    units-per-em="1000"
    panose-1="2 0 6 3 4 0 0 2 0 4"
    ascent="800"
    descent="-200"
    x-height="528"
    cap-height="740"
    bbox="-94 -205 1352 956"
    underline-thickness="20"
    underline-position="-153"
    unicode-range="U+0020-FB02"
  />
<missing-glyph horiz-adv-x="500" 
 />
    <glyph glyph-name="fi" unicode="fi" horiz-adv-x="591" 
d="M416 528h86v-528h-86v528zM117 457h-92v71h92v71q0 67 37 105t115 38q12 0 26.5 -1.5t21.5 -1.5v-70q-7 2 -17 2h-18q-36 0 -57.5 -17.5t-21.5 -56.5v-69h110v-71h-110v-457h-86v457zM415 725h88v-87h-88v87z" />
    <glyph glyph-name="fl" unicode="fl" horiz-adv-x="589" 
d="M416 740h86v-740h-86v740zM117 457h-92v71h92v71q0 67 37 105t115 38q12 0 26.5 -1.5t21.5 -1.5v-70q-7 2 -17 2h-18q-36 0 -57.5 -17.5t-21.5 -56.5v-69h110v-71h-110v-457h-86v457z" />
    <glyph glyph-name=".notdef" horiz-adv-x="500" 
 />
    <glyph glyph-name=".null" horiz-adv-x="0" 
 />
    <glyph glyph-name="nonmarkingreturn" horiz-adv-x="234" 
 />
    <glyph glyph-name="space" unicode=" " horiz-adv-x="234" 
 />
    <glyph glyph-name="exclam" unicode="!" horiz-adv-x="321" 
d="M110 103h103v-103h-103v103zM108 740h107l-25 -532h-56z" />
    <glyph glyph-name="quotedbl" unicode="&#x22;" horiz-adv-x="415" 
d="M78 681v59h82v-59l-17 -196h-48zM255 681v59h81v-59l-17 -196h-47z" />
    <glyph glyph-name="numbersign" unicode="#" horiz-adv-x="718" 
d="M249 280h177l37 180h-176zM155 211h-115v69h130l37 180h-124v69h139l44 211h79l-44 -211h177l44 211h79l-44 -211h120v-69h-134l-38 -180h129v-69h-143l-45 -211h-79l44 211h-176l-45 -211h-79z" />
    <glyph glyph-name="dollar" unicode="$" horiz-adv-x="654" 
d="M355 65q33 2 61 9.5t48.5 22.5t32.5 37.5t12 55.5q0 32 -12 55t-32.5 39.5t-48.5 28.5t-61 22v-270zM298 675q-72 -4 -104.5 -36.5t-32.5 -77.5q0 -28 10.5 -48t28.5 -35t43 -26t55 -20v243zM295 -5q-49 4 -87.5 18t-67.5 34.5t-49.5 44.5t-34.5 47l64 42q32 -48 73 -79
t105 -37v286q-43 12 -83 27.5t-71 38.5t-49 56t-18 81q0 39 15 73t43 59.5t68.5 41.5t91.5 19v72h62v-74q42 -4 74 -16t56.5 -29t42.5 -38t32 -43l-63 -47q-26 42 -57.5 68t-86.5 33v-258q46 -13 89 -28.5t76 -40t53 -60.5t20 -89q0 -85 -61 -140t-175 -63v-87h-62v88z" />
    <glyph glyph-name="percent" unicode="%" horiz-adv-x="995" 
d="M765 55q24 0 42 12t30 34t18 51.5t6 63.5q0 74 -24.5 117t-72.5 43t-72 -45t-24 -114q0 -74 24.5 -118t72.5 -44zM232 365q47 0 71 45t24 114q0 74 -24.5 117.5t-71.5 43.5q-48 0 -72 -45t-24 -114q0 -74 24.5 -117.5t72.5 -43.5zM764 -10q-41 0 -73 16.5t-54 46
t-33.5 71t-11.5 90.5q0 52 12.5 94t35 72t54.5 46t72 16q39 0 71 -16t54 -45t34 -71t12 -93q0 -49 -11.5 -91t-34 -72t-54.5 -47t-73 -17zM680 740h78l-442 -740h-78zM231 299q-42 0 -74 16.5t-54 46t-33.5 70.5t-11.5 91q0 52 12.5 94t35 72t54.5 46t72 16q80 0 125.5 -61
t45.5 -164q0 -50 -11.5 -91.5t-33.5 -71.5t-54 -47t-73 -17z" />
    <glyph glyph-name="ampersand" unicode="&#x26;" horiz-adv-x="725" 
d="M290 59q91 0 155 52q-29 28 -62 65t-72 86q-20 25 -37 47.5t-31 43.5q-54 -32 -87 -72t-33 -89q0 -65 42.5 -99t124.5 -34zM283 444q29 15 54 31t43.5 35t29.5 41.5t11 50.5q0 32 -20 57t-63 25q-47 0 -72 -27.5t-25 -74.5q0 -35 10 -67.5t32 -70.5zM284 -14
q-61 0 -107.5 14.5t-78 40.5t-47.5 62t-16 80q0 41 14 74.5t37.5 61t55 49.5t66.5 40q-25 45 -37.5 85.5t-12.5 83.5q0 35 11 66.5t33.5 56.5t56.5 39.5t79 14.5q41 0 71 -11.5t50.5 -31.5t30.5 -46.5t10 -56.5q0 -39 -14.5 -70.5t-39.5 -57.5t-59 -47.5t-72 -40.5
q13 -20 29 -41t35 -45q34 -44 63.5 -78t55.5 -60q29 40 47 91.5t26 112.5h80q-10 -71 -33 -134.5t-61 -114.5q40 -31 75.5 -44t71.5 -13v-76q-58 2 -105 18.5t-97 55.5q-43 -37 -96 -57.5t-122 -20.5z" />
    <glyph glyph-name="quotesingle" unicode="'" horiz-adv-x="239" 
d="M78 681v59h82v-59l-17 -196h-48z" />
    <glyph glyph-name="parenleft" unicode="(" horiz-adv-x="399" 
d="M310 -205q-123 103 -187 219.5t-64 260.5t64.5 260.5t186.5 219.5l39 -43q-90 -85 -143.5 -195t-53.5 -242t54 -243t145 -196z" />
    <glyph glyph-name="parenright" unicode=")" horiz-adv-x="399" 
d="M48 -164q91 85 144.5 196t53.5 243t-53 242t-144 195l40 43q122 -103 186 -219.5t64 -260.5t-63.5 -260.5t-186.5 -219.5z" />
    <glyph glyph-name="asterisk" unicode="*" horiz-adv-x="508" 
d="M120 376l102 148l-180 -12v62l181 -13l-103 148l57 34l77 -163l77 163l57 -34l-102 -148l180 13v-62l-180 12l102 -148l-56 -33l-78 163l-77 -163z" />
    <glyph glyph-name="plus" unicode="+" horiz-adv-x="638" 
d="M282 297h-216v72h216v220h74v-220h217v-72h-217v-220h-74v220z" />
    <glyph glyph-name="comma" unicode="," horiz-adv-x="271" 
d="M123 0h-39v105h103v-93l-51 -117h-40z" />
    <glyph glyph-name="hyphen" unicode="-" horiz-adv-x="357" 
d="M62 348h233v-68h-233v68z" />
    <glyph glyph-name="hyphen" unicode="&#xad;" horiz-adv-x="357" 
d="M62 348h233v-68h-233v68z" />
    <glyph glyph-name="period" unicode="." horiz-adv-x="271" 
d="M84 105h103v-105h-103v105z" />
    <glyph glyph-name="slash" unicode="/" horiz-adv-x="566" 
d="M453 740h90l-430 -740h-90z" />
    <glyph glyph-name="zero" unicode="0" horiz-adv-x="661" 
d="M331 63q90 0 140 77.5t50 229.5t-51 229t-139 77q-91 0 -141 -77t-50 -229t51.5 -229.5t139.5 -77.5zM331 -14q-66 0 -118 27.5t-88 78t-54.5 121t-18.5 157.5t18.5 157.5t54.5 121t88 78t118 27.5q67 0 118.5 -27.5t87 -78t53.5 -121t18 -157.5t-18 -157.5t-53.5 -121
t-87 -78t-118.5 -27.5z" />
    <glyph glyph-name="one" unicode="1" horiz-adv-x="437" 
d="M54 78h139v570q-27 -14 -66 -24t-71 -10v78q43 2 79.5 13.5t61.5 34.5h82v-662h124v-78h-349v78z" />
    <glyph glyph-name="two" unicode="2" horiz-adv-x="592" 
d="M44 16q0 40 10.5 79.5t38 80t74.5 83t120 89.5q42 27 71.5 49.5t48 45t27.5 46.5t9 54q0 61 -36.5 97t-102.5 36q-114 0 -181 -122l-68 42q41 74 103.5 116t149.5 42q51 0 92 -15t69.5 -42t44 -65t15.5 -83q0 -36 -9 -67.5t-30.5 -61.5t-57.5 -60t-89 -64
q-97 -62 -145.5 -116t-54.5 -102h390v-78h-489v16z" />
    <glyph glyph-name="three" unicode="3" horiz-adv-x="597" 
d="M287 -14q-84 0 -151 34.5t-110 100.5l64 48q40 -57 89 -81.5t108 -24.5q78 0 123 37t45 103q0 77 -53 114.5t-175 37.5h-30v73h35q57 0 96.5 8.5t63.5 25t34.5 40.5t10.5 55q0 53 -34 85.5t-113 32.5q-54 0 -98 -23t-76 -61l-57 53q42 48 102 78.5t136 30.5
q59 0 102 -14.5t70.5 -40t41 -59t13.5 -71.5q0 -70 -38.5 -115t-105.5 -60q83 -17 122.5 -65t39.5 -127q0 -47 -18 -86.5t-51 -68t-80 -44.5t-106 -16z" />
    <glyph glyph-name="four" unicode="4" horiz-adv-x="619" 
d="M387 248v389h-2l-258 -389h260zM387 171h-357v67l337 502h105v-492h125v-77h-125v-171h-85v171z" />
    <glyph glyph-name="five" unicode="5" horiz-adv-x="587" 
d="M285 -14q-83 0 -147 34.5t-104 91.5l59 54q35 -45 80.5 -74t109.5 -29q45 0 78.5 15t55 39.5t32 57t10.5 68.5q0 85 -44.5 128.5t-116.5 43.5q-54 0 -93.5 -22t-69.5 -64l-63 22l29 389h402l-7 -79h-324l-18 -236q26 29 64 46.5t97 17.5q52 0 94.5 -17t73 -48.5t47 -76.5
t16.5 -100q0 -57 -18 -104.5t-51.5 -82.5t-82 -54.5t-109.5 -19.5z" />
    <glyph glyph-name="six" unicode="6" horiz-adv-x="619" 
d="M327 61q75 0 120 45t45 126q0 35 -9 64t-28.5 50t-50 33t-73.5 12q-59 0 -109.5 -28t-81.5 -70q5 -61 21.5 -104.5t41 -72t56.5 -42t68 -13.5zM322 -14q-57 0 -106.5 22.5t-86 68.5t-57 116t-20.5 164q0 89 22.5 162.5t63 125.5t95.5 80.5t119 28.5q62 0 106.5 -17
t74.5 -41l-44 -65q-28 21 -60 33.5t-80 12.5t-86.5 -23t-66 -63.5t-42.5 -96.5t-16 -122q36 38 87 66t119 28q57 0 100.5 -16.5t73 -47t44.5 -73.5t15 -95q0 -54 -19 -99.5t-52.5 -78.5t-80.5 -51.5t-103 -18.5z" />
    <glyph glyph-name="seven" unicode="7" horiz-adv-x="547" 
d="M418 661h-375v79h467v-74l-308 -666h-90z" />
    <glyph glyph-name="eight" unicode="8" horiz-adv-x="613" 
d="M307 57q40 0 73.5 9t57.5 26t37.5 40.5t13.5 53.5q0 29 -12 52.5t-36 43.5t-59 38.5t-81 37.5q-45 -20 -78.5 -39t-55 -39.5t-32.5 -43t-11 -50.5t13.5 -52t37.5 -41t58 -26.5t74 -9.5zM311 426q39 17 66.5 32.5t45 32t26 35.5t8.5 43q0 21 -9 41.5t-27 36t-46.5 25.5
t-67.5 10q-38 0 -66.5 -9.5t-47 -24.5t-28 -35t-9.5 -41q0 -25 9.5 -45t28.5 -36.5t48 -32t69 -32.5zM307 -16q-64 0 -114.5 15t-85 41.5t-53 62.5t-18.5 78q0 38 13.5 69t38 56t60 46t78.5 39q-36 17 -65 35t-49.5 39.5t-31 48t-10.5 60.5q0 35 16 67.5t46 58t74 41
t101 15.5q58 0 102 -15.5t73.5 -41t44.5 -58.5t15 -67q0 -65 -41 -105.5t-116 -74.5q45 -19 80.5 -39.5t60 -45.5t37.5 -56t13 -72t-18 -77t-52.5 -62.5t-84.5 -42t-114 -15.5z" />
    <glyph glyph-name="nine" unicode="9" horiz-adv-x="619" 
d="M288 349q58 0 108.5 28t81.5 70q-5 61 -21 104.5t-40.5 71.5t-56.5 41.5t-68 13.5q-75 0 -120 -44.5t-45 -125.5q0 -34 9 -63.5t28 -50.5t50 -33t74 -12zM267 -14q-64 0 -111 19t-78 45l43 65q30 -23 64 -38t85 -15q48 0 86.5 23t65.5 64t42 97t16 122q-36 -38 -87 -66
t-119 -28q-56 0 -99.5 16.5t-73 47t-44.5 73.5t-15 95q0 54 19 99.5t52.5 78.5t80.5 51.5t103 18.5q57 0 106.5 -22.5t85.5 -68.5t56.5 -115.5t20.5 -164.5q0 -89 -22.5 -162.5t-62.5 -125.5t-94.5 -80.5t-119.5 -28.5z" />
    <glyph glyph-name="colon" unicode=":" horiz-adv-x="275" 
d="M86 105h103v-105h-103v105zM86 528h103v-106h-103v106z" />
    <glyph glyph-name="semicolon" unicode=";" horiz-adv-x="275" 
d="M125 0h-39v105h103v-92l-52 -118h-40zM86 528h103v-106h-103v106z" />
    <glyph glyph-name="semicolon" unicode="&#x37e;" horiz-adv-x="275" 
d="M125 0h-39v105h103v-92l-52 -118h-40zM86 528h103v-106h-103v106z" />
    <glyph glyph-name="less" unicode="&#x3c;" horiz-adv-x="638" 
d="M53 295v58l529 227v-77l-432 -179l432 -179v-77z" />
    <glyph glyph-name="equal" unicode="=" horiz-adv-x="638" 
d="M66 246h505v-69h-505v69zM66 474h505v-69h-505v69z" />
    <glyph glyph-name="greater" unicode="&#x3e;" horiz-adv-x="638" 
d="M58 145l432 179l-432 179v77l529 -227v-58l-529 -227v77z" />
    <glyph glyph-name="question" unicode="?" horiz-adv-x="549" 
d="M197 103h102v-103h-102v103zM213 207q-3 32 -3 67q0 54 22 89t71 64q28 17 48.5 31.5t34 30t20 34.5t6.5 45q0 51 -36.5 79.5t-101.5 28.5q-62 0 -104.5 -27.5t-73.5 -68.5l-59 49q21 27 45.5 49.5t54 39.5t65 26.5t78.5 9.5q51 0 91.5 -13.5t69 -37.5t43.5 -57t15 -73
q0 -36 -10 -63t-27 -48.5t-40 -38.5t-49 -32q-32 -18 -50 -34t-27 -36t-11 -46.5t-2 -67.5h-70z" />
    <glyph glyph-name="at" unicode="@" horiz-adv-x="868" 
d="M379 217q35 0 66.5 14t64.5 46l30 199q-24 28 -51.5 40.5t-63.5 12.5q-31 0 -57 -16.5t-44 -44.5t-28 -64.5t-10 -77.5q0 -57 24.5 -83t68.5 -26zM431 -14q-85 0 -155.5 28t-121.5 78.5t-79 121t-28 155.5q0 86 29 156.5t81 121.5t123 79t155 28t154.5 -27.5t122 -77
t80.5 -118t29 -151.5q0 -52 -13 -93.5t-36 -71t-55 -45t-70 -15.5q-51 0 -80.5 21t-40.5 55q-35 -32 -74.5 -51.5t-89.5 -19.5q-65 0 -106 39t-41 120q0 58 15.5 107.5t42.5 85.5t65 56.5t83 20.5t74.5 -15t52.5 -38l7 45h70l-44 -296q-6 -36 13 -59.5t61 -23.5
q49 0 83.5 43.5t34.5 132.5q0 73 -25 134t-70 104.5t-107 67.5t-136 24t-136 -25t-107 -69.5t-70 -107t-25 -137.5t25 -137t69 -107t106 -70t135 -25q60 0 108 13t93 39l21 -36q-46 -28 -103 -44t-120 -16z" />
    <glyph glyph-name="A" unicode="A" horiz-adv-x="680" 
d="M457 289l-118 347h-2l-120 -347h240zM294 743h92l262 -743h-91l-73 212h-294l-73 -212h-85z" />
    <glyph glyph-name="B" unicode="B" horiz-adv-x="691" 
d="M371 77q91 0 133 33.5t42 97.5q0 70 -51.5 101.5t-141.5 31.5h-175v-264h193zM348 417q84 0 129.5 30t45.5 94t-41 92.5t-132 28.5h-172v-245h170zM91 740h265q121 0 187 -46t66 -139q0 -38 -10.5 -67t-29.5 -50t-43.5 -34.5t-53.5 -19.5v-2q34 -6 63.5 -20t51 -36
t34 -52.5t12.5 -71.5q0 -94 -66 -148t-190 -54h-286v740z" />
    <glyph glyph-name="C" unicode="C" horiz-adv-x="705" 
d="M369 -14q-70 0 -128 26.5t-99.5 76.5t-64 121.5t-22.5 162.5q0 87 23 157t64.5 120t99.5 77t127 27q59 0 104.5 -16.5t79 -46t55.5 -71.5t35 -93l-84 -23q-24 85 -67 127t-124 42q-52 0 -93.5 -21t-70.5 -60t-44.5 -94t-15.5 -124q0 -148 61 -228t165 -80q155 0 201 179
l83 -19q-13 -55 -37.5 -99t-60 -75.5t-82.5 -48.5t-105 -17z" />
    <glyph glyph-name="D" unicode="D" horiz-adv-x="715" 
d="M297 79q134 0 204 69.5t70 223.5q0 149 -70.5 218t-205.5 69h-116v-580h118zM91 740h195q179 0 276 -91t97 -277q0 -94 -25 -164t-73 -116t-117.5 -69t-157.5 -23h-195v740z" />
    <glyph glyph-name="E" unicode="E" horiz-adv-x="609" 
d="M91 740h454v-81h-366v-231h272v-79h-272v-269h387v-80h-475v740z" />
    <glyph glyph-name="F" unicode="F" horiz-adv-x="569" 
d="M91 740h444v-81h-356v-238h262v-79h-262v-342h-88v740z" />
    <glyph glyph-name="G" unicode="G" horiz-adv-x="730" 
d="M364 -14q-75 0 -132.5 29t-97 80.5t-59.5 122.5t-20 155q0 88 23 158.5t65 120t100 76t127 26.5q106 0 175.5 -56t98.5 -173l-82 -21q-26 89 -71 129t-122 40q-43 0 -84 -17t-72 -53.5t-50 -92.5t-19 -134t17 -136t47.5 -97t72.5 -58.5t91 -19.5q87 0 140 56t55 159h-170
v74h255v-354h-77v111h-2q-11 -23 -29 -45.5t-43.5 -40t-59.5 -28.5t-77 -11z" />
    <glyph glyph-name="H" unicode="H" horiz-adv-x="739" 
d="M91 740h88v-310h381v310h88v-740h-88v349h-381v-349h-88v740z" />
    <glyph glyph-name="I" unicode="I" horiz-adv-x="290" 
d="M101 740h88v-740h-88v740z" />
    <glyph glyph-name="J" unicode="J" horiz-adv-x="505" 
d="M212 -14q-68 0 -112 26.5t-76 70.5l59 50q23 -31 52.5 -50.5t73.5 -19.5q28 0 51 7.5t39.5 24t25.5 44t9 67.5v534h88v-540q0 -105 -55.5 -159.5t-154.5 -54.5z" />
    <glyph glyph-name="K" unicode="K" horiz-adv-x="678" 
d="M91 740h88v-382l335 382h106l-254 -282l289 -458h-101l-246 391l-129 -141v-250h-88v740z" />
    <glyph glyph-name="L" unicode="L" horiz-adv-x="569" 
d="M91 740h88v-660h356v-80h-444v740z" />
    <glyph glyph-name="M" unicode="M" horiz-adv-x="878" 
d="M91 740h115l233 -629h2l229 629h117v-740h-87v599h-2q-8 -29 -20 -64t-25 -72l-177 -463h-79l-177 463q-7 18 -12.5 34l-11 32t-11 33.5t-11.5 39.5h-2v-602h-81v740z" />
    <glyph glyph-name="N" unicode="N" horiz-adv-x="749" 
d="M91 740h93l389 -585h2v585h83v-740h-79l-403 601h-2v-601h-83v740z" />
    <glyph glyph-name="O" unicode="O" horiz-adv-x="749" 
d="M375 65q50 0 92.5 20.5t73 59.5t47.5 96t17 129t-17 128.5t-47.5 95.5t-73 59.5t-92.5 20.5q-51 0 -93.5 -20.5t-73 -59.5t-47.5 -95.5t-17 -128.5t17 -129t47.5 -96t73 -59.5t93.5 -20.5zM375 -14q-69 0 -127.5 26.5t-101 76t-67 121t-24.5 160.5t24.5 160.5t67 121
t101 76t127.5 26.5t127 -26.5t100.5 -76t66.5 -121t24 -160.5t-24 -160.5t-66.5 -121t-100.5 -76t-127 -26.5z" />
    <glyph glyph-name="P" unicode="P" horiz-adv-x="649" 
d="M341 391q89 0 135 30.5t46 105.5q0 72 -45.5 102.5t-136.5 30.5h-161v-269h162zM91 740h251q60 0 109 -12t84.5 -37.5t54.5 -65.5t19 -95q0 -59 -21 -100.5t-57.5 -67.5t-86.5 -37.5t-108 -11.5h-157v-313h-88v740z" />
    <glyph glyph-name="Q" unicode="Q" horiz-adv-x="749" 
d="M375 64q50 0 92 20.5t72.5 60t47.5 96.5t17 129t-17 128.5t-47.5 95.5t-72.5 59.5t-92 20.5q-51 0 -93.5 -20.5t-73.5 -59.5t-48 -95.5t-17 -128.5t17 -129t48 -96.5t73.5 -60t93.5 -20.5zM550 -188q-57 0 -99 13.5t-69.5 37t-41.5 56.5t-15 72q-59 8 -108.5 38t-85.5 79
t-56 115.5t-20 146.5q0 89 25 160.5t68 121t101.5 76t125.5 26.5t125 -26.5t101 -76t67.5 -121t24.5 -160.5q0 -82 -21 -149t-58 -116t-88.5 -78.5t-111.5 -36.5q4 -32 16.5 -51.5t33.5 -31t49.5 -15.5t62.5 -4h51v-76h-77z" />
    <glyph glyph-name="R" unicode="R" horiz-adv-x="677" 
d="M340 397q87 0 134 28.5t47 104.5q0 73 -46.5 101.5t-135.5 28.5h-161v-263h162zM91 740h254q127 0 195 -52t68 -155q0 -90 -46.5 -138t-125.5 -65l182 -330h-96l-177 319h-167v-319h-87v740z" />
    <glyph glyph-name="S" unicode="S" horiz-adv-x="657" 
d="M334 -14q-106 0 -178.5 52.5t-101.5 140.5l74 33q28 -75 81.5 -111.5t128.5 -36.5q78 0 125.5 31.5t47.5 90.5q0 27 -8.5 48.5t-29.5 39.5t-57 34t-91 33q-58 18 -103.5 36t-77 42t-48.5 57.5t-17 81.5q0 42 17.5 78t49 62.5t75 41t96.5 14.5t95 -12.5t74 -35t55 -53
t37 -65.5l-70 -39q-30 67 -78 96t-114 29q-71 0 -110.5 -30.5t-39.5 -78.5q0 -30 10 -50.5t33 -37t60.5 -31.5t91.5 -32q56 -17 100 -36t74.5 -44.5t46.5 -60t16 -81.5q0 -46 -19 -84t-54 -65t-83.5 -42t-107.5 -15z" />
    <glyph glyph-name="T" unicode="T" horiz-adv-x="623" 
d="M267 659h-235v81h559v-81h-236v-659h-88v659z" />
    <glyph glyph-name="U" unicode="U" horiz-adv-x="717" 
d="M359 -13q-71 0 -123 20.5t-85.5 56.5t-50 85.5t-16.5 106.5v484h88v-472q0 -45 11 -82t34 -63.5t58.5 -41.5t84.5 -15q97 0 141.5 55t44.5 145v474h87v-482q0 -58 -17 -107.5t-51.5 -86t-85.5 -57t-120 -20.5z" />
    <glyph glyph-name="V" unicode="V" horiz-adv-x="666" 
d="M32 740h90l212 -625h2l213 625h85l-260 -743h-82z" />
    <glyph glyph-name="W" unicode="W" horiz-adv-x="931" 
d="M36 740h89l109 -429q13 -49 24 -95t19 -86h2q8 39 18.5 85.5t23.5 94.5l103 430h89l106 -433q12 -50 22.5 -92t18.5 -85h2q9 45 19 85t22 89l108 436h84l-196 -740h-81l-149 619h-2l-153 -619h-81z" />
    <glyph glyph-name="X" unicode="X" horiz-adv-x="670" 
d="M286 395l-223 345h101l175 -275l172 275h93l-221 -344l255 -396h-96l-209 326l-210 -326h-91z" />
    <glyph glyph-name="Y" unicode="Y" horiz-adv-x="631" 
d="M271 324l-249 416h94l201 -341l200 341h92l-250 -416v-324h-88v324z" />
    <glyph glyph-name="Z" unicode="Z" horiz-adv-x="630" 
d="M40 62l433 604h-405v74h513v-64l-430 -603h430v-73h-541v62z" />
    <glyph glyph-name="bracketleft" unicode="[" horiz-adv-x="399" 
d="M84 740h271v-64h-184v-812h184v-64h-271v940z" />
    <glyph glyph-name="backslash" unicode="\" horiz-adv-x="556" 
d="M18 740h90l430 -740h-90z" />
    <glyph glyph-name="bracketright" unicode="]" horiz-adv-x="399" 
d="M43 -136h184v811h-184v65h271v-940h-271v64z" />
    <glyph glyph-name="asciicircum" unicode="^" horiz-adv-x="518" 
d="M227 743h63l129 -161h-52l-109 94l-108 -94h-52z" />
    <glyph glyph-name="underscore" unicode="_" horiz-adv-x="500" 
d="M0 -65h500v-67h-500v67z" />
    <glyph glyph-name="grave" unicode="`" horiz-adv-x="500" 
d="M136 743h105l94 -158h-57z" />
    <glyph glyph-name="a" unicode="a" horiz-adv-x="553" 
d="M218 60q53 0 97.5 20.5t81.5 56.5v148q-75 -12 -126.5 -27t-83 -33.5t-45 -40t-13.5 -46.5q0 -38 23.5 -58t65.5 -20zM193 -8q-69 0 -109 34.5t-40 98.5q0 40 18.5 74.5t60 62t109 48.5t165.5 35v24q0 98 -100 98q-60 0 -106 -23t-85 -57l-45 54q46 42 106 70t139 28
q47 0 80.5 -12t54.5 -34.5t31 -55.5t10 -74v-233q0 -48 3.5 -79t11.5 -51h-88q-5 17 -8.5 33.5t-3.5 39.5q-87 -81 -204 -81z" />
    <glyph glyph-name="b" unicode="b" horiz-adv-x="599" 
d="M315 62q69 0 109.5 48.5t40.5 153.5q0 101 -42.5 151t-106.5 50q-46 0 -83.5 -22.5t-70.5 -58.5v-242q71 -80 153 -80zM327 -8q-49 0 -90 20.5t-75 55.5v-68h-86v740h86v-286q30 34 72.5 59.5t101.5 25.5q45 0 84.5 -17t68.5 -51t45.5 -85.5t16.5 -120.5t-17 -120.5
t-47 -85t-71 -50.5t-89 -17z" />
    <glyph glyph-name="c" unicode="c" horiz-adv-x="536" 
d="M281 -11q-46 0 -88.5 17.5t-75 52t-52 86t-19.5 119.5q0 72 21 124t55.5 85.5t78 49.5t87.5 16q45 0 78 -12t58 -32.5t42 -47.5t29 -56l-73 -30q-20 51 -52 78t-84 27q-28 0 -55.5 -10.5t-49.5 -34.5t-35 -62.5t-13 -94.5q0 -98 42 -150.5t109 -52.5q51 0 83.5 24
t58.5 82l71 -28q-15 -33 -35 -60.5t-46 -47.5t-59 -31t-76 -11z" />
    <glyph glyph-name="d" unicode="d" horiz-adv-x="599" 
d="M283 63q46 0 83 22.5t70 58.5v242q-35 39 -72.5 59.5t-79.5 20.5q-69 0 -110 -49.5t-41 -154.5q0 -51 11.5 -88t31.5 -62t47.5 -37t59.5 -12zM262 -8q-45 0 -84.5 16.5t-68.5 50t-45.5 84.5t-16.5 120t17 121t47 86.5t71.5 51.5t89.5 17t91 -21.5t73 -56.5v279h86v-610
q0 -48 3.5 -79t12.5 -51h-90q-5 13 -8.5 34t-3.5 41q-32 -35 -73 -59t-101 -24z" />
    <glyph glyph-name="e" unicode="e" horiz-adv-x="552" 
d="M423 309q-5 71 -39 114.5t-100 43.5q-27 0 -52 -9.5t-45 -29t-34 -49t-19 -70.5h289zM285 -11q-47 0 -90 17t-76 51.5t-53 86t-20 120.5q0 72 21.5 124t56 85.5t77 49.5t84.5 16q47 0 87 -16.5t69.5 -51t46.5 -87t17 -124.5v-18h-373q1 -45 14 -79t34 -57t49.5 -35
t61.5 -12q57 0 93 22t66 64l50 -44q-37 -53 -88.5 -82.5t-126.5 -29.5z" />
    <glyph glyph-name="f" unicode="f" horiz-adv-x="344" 
d="M117 457h-92v71h92v71q0 67 37.5 105t121.5 38q11 0 27 -1.5t22 -1.5v-70q-6 2 -17 2.5t-20 0.5q-36 0 -60.5 -15.5t-24.5 -58.5v-70h116v-71h-116v-457h-86v457z" />
    <glyph glyph-name="g" unicode="g" horiz-adv-x="575" 
d="M283 -138q79 0 123.5 22t44.5 58q0 35 -31.5 52.5t-114.5 23.5l-100 7l-30 3q-38 -14 -58 -37t-20 -50q0 -40 43.5 -59.5t142.5 -19.5zM269 224q61 0 96.5 33t35.5 90q0 58 -34.5 91.5t-98.5 33.5q-62 0 -97.5 -34t-35.5 -91t36.5 -90t97.5 -33zM272 -203
q-134 0 -194.5 35.5t-60.5 95.5q0 41 25.5 70.5t70.5 46.5q-45 21 -45 67q0 26 18.5 47t47.5 38q-38 25 -59.5 63.5t-21.5 88.5q0 42 16 76.5t44.5 60t68 39.5t86.5 14q49 0 88.5 -15t67.5 -40q24 18 58.5 31.5t66.5 17.5v-76q-22 0 -47 -4t-48 -13q27 -38 27 -91
q0 -43 -16 -77.5t-44.5 -59t-67.5 -38t-85 -13.5q-23 0 -43.5 3.5t-40.5 9.5q-17 -8 -27 -17.5t-10 -23.5q0 -17 15.5 -25t57.5 -12l108 -9q101 -7 151.5 -40t50.5 -97q0 -38 -19 -66.5t-53 -47.5t-81.5 -29t-104.5 -10z" />
    <glyph glyph-name="h" unicode="h" horiz-adv-x="588" 
d="M76 740h87v-291q17 17 38 33t46 29t53.5 20.5t60.5 7.5q76 0 116 -41.5t40 -116.5v-381h-86v362q0 53 -23 78t-74 25q-48 0 -88.5 -23t-82.5 -62v-380h-87v740z" />
    <glyph glyph-name="i" unicode="i" horiz-adv-x="250" 
d="M82 528h86v-528h-86v528zM80 725h90v-84h-90v84z" />
    <glyph glyph-name="j" unicode="j" horiz-adv-x="250" 
d="M46 -201q-11 0 -29 1.5t-23 2.5v65q7 -2 16 -3t18 -1q26 0 40 14.5t14 46.5v603h86v-609q0 -27 -6 -49t-20 -38t-37.5 -24.5t-58.5 -8.5zM80 725h90v-84h-90v84z" />
    <glyph glyph-name="k" unicode="k" horiz-adv-x="540" 
d="M76 740h86v-476l236 264h98l-173 -189l192 -339h-92l-156 275l-105 -113v-162h-86v740z" />
    <glyph glyph-name="l" unicode="l" horiz-adv-x="250" 
d="M82 740h86v-740h-86v740z" />
    <glyph glyph-name="m" unicode="m" horiz-adv-x="917" 
d="M76 528h86v-80q38 38 84 64.5t106 26.5q67 0 99 -25.5t46 -67.5q38 38 86.5 65.5t108.5 27.5q81 0 117 -43t36 -115v-381h-86v362q0 53 -20 78t-72 25q-45 0 -83 -23t-80 -62v-380h-86v362q0 53 -20 78t-72 25q-44 0 -83 -23t-81 -62v-380h-86v528z" />
    <glyph glyph-name="n" unicode="n" horiz-adv-x="588" 
d="M76 528h87v-79q17 17 38 33t46 29t53.5 20.5t60.5 7.5q76 0 116 -41.5t40 -116.5v-381h-86v362q0 53 -23 78t-74 25q-48 0 -88.5 -23t-82.5 -62v-380h-87v528z" />
    <glyph glyph-name="o" unicode="o" horiz-adv-x="583" 
d="M292 62q38 0 67 14.5t49.5 41t31 64t10.5 82.5q0 41 -10 77.5t-29.5 64t-49.5 43.5t-69 16q-38 0 -67.5 -14.5t-50 -41t-31 -63.5t-10.5 -82q0 -42 10 -79t29.5 -64t49.5 -43t70 -16zM292 -11q-48 0 -92.5 17.5t-78.5 52t-54.5 86t-20.5 119.5t20 119.5t54 86t78.5 52
t93.5 17.5q48 0 92.5 -17.5t78.5 -52t54 -86t20 -119.5t-20 -119.5t-54 -86t-78.5 -52t-92.5 -17.5z" />
    <glyph glyph-name="p" unicode="p" horiz-adv-x="599" 
d="M315 62q69 0 109.5 48.5t40.5 153.5q0 101 -42.5 151t-106.5 50q-46 0 -83.5 -22.5t-70.5 -58.5v-242q71 -80 153 -80zM76 528h86v-73q30 33 72 58.5t102 25.5q45 0 84.5 -17t68.5 -51t45.5 -85.5t16.5 -120.5t-17 -120.5t-47 -85t-71 -50.5t-89 -17q-49 0 -90 20.5
t-75 55.5v-268h-86v728z" />
    <glyph glyph-name="q" unicode="q" horiz-adv-x="599" 
d="M283 63q46 0 83 22.5t70 58.5v242q-35 39 -72.5 59.5t-79.5 20.5q-69 0 -110 -49.5t-41 -154.5q0 -51 11.5 -88t31.5 -62t47.5 -37t59.5 -12zM436 75q-32 -35 -73 -59t-101 -24q-45 0 -84.5 16.5t-68.5 50t-45.5 84.5t-16.5 120t17 121t47 86.5t71.5 51.5t89.5 17
t89.5 -21t74.5 -56v66h86v-728h-86v275z" />
    <glyph glyph-name="r" unicode="r" horiz-adv-x="400" 
d="M76 528h86v-98h2q29 46 78 77.5t126 31.5h11l-6 -80q-2 1 -12.5 1h-12.5q-63 0 -110 -31t-76 -88v-341h-86v528z" />
    <glyph glyph-name="s" unicode="s" horiz-adv-x="512" 
d="M254 -10q-72 0 -128 25.5t-88 64.5l52 52q30 -32 70.5 -52.5t94.5 -20.5q62 0 94.5 21t32.5 62q0 40 -34 59t-102 35q-42 10 -77 22t-59.5 29.5t-38.5 43.5t-14 64q0 30 12.5 56.5t36.5 46t58.5 30.5t77.5 11q70 0 117.5 -20.5t84.5 -55.5l-45 -57q-30 28 -69 45.5
t-84 17.5q-58 0 -82.5 -21.5t-24.5 -49.5q0 -37 31 -54.5t94 -31.5q45 -11 82 -23t63.5 -30.5t41 -45.5t14.5 -68q0 -38 -16 -67t-44.5 -48.5t-67 -29.5t-83.5 -10z" />
    <glyph glyph-name="t" unicode="t" horiz-adv-x="377" 
d="M261 -7q-83 0 -115 33t-32 102v329h-92v71h92v188h86v-188h137v-71h-137v-310q0 -42 17 -63t65 -21q14 0 28.5 2t25.5 5v-71q-11 -2 -33 -4t-42 -2z" />
    <glyph glyph-name="u" unicode="u" horiz-adv-x="588" 
d="M227 -10q-76 0 -116 41t-40 116v381h86v-363q0 -53 23 -78t74 -25q48 0 88.5 23t82.5 62v381h87v-528h-87v79q-17 -17 -38 -33t-46 -28.5t-53.5 -20t-60.5 -7.5z" />
    <glyph glyph-name="v" unicode="v" horiz-adv-x="515" 
d="M20 528h92l148 -428h2l146 428h86l-193 -530h-87z" />
    <glyph glyph-name="w" unicode="w" horiz-adv-x="752" 
d="M22 528h89l69 -248q7 -24 12.5 -45t11 -41.5t11 -42t11.5 -47.5h2l12.5 50l10.5 42t10.5 40.5t12.5 44.5l67 247h75l69 -252q7 -24 12.5 -44t10.5 -40t10 -41t11 -47h2q7 26 12.5 47.5t10.5 41t10.5 39t12.5 42.5l72 254h81l-161 -528h-80l-112 413h-2l-113 -413h-79z
" />
    <glyph glyph-name="x" unicode="x" horiz-adv-x="518" 
d="M215 273l-175 255h94l129 -193l128 193h91l-176 -254l187 -274h-93l-142 210l-141 -210h-90z" />
    <glyph glyph-name="y" unicode="y" horiz-adv-x="533" 
d="M106 -203q-35 0 -58.5 4t-40.5 9l20 69q11 -3 30.5 -6t47.5 -3q41 0 63 18t38 57l20 52l-204 531h91l155 -427h2l155 427h87l-226 -588q-13 -35 -28.5 -61.5t-36.5 -44.5t-48.5 -27.5t-66.5 -9.5z" />
    <glyph glyph-name="z" unicode="z" horiz-adv-x="510" 
d="M39 52l309 406h-285v70h393v-54l-310 -405h325v-69h-432v52z" />
    <glyph glyph-name="braceleft" unicode="{" horiz-adv-x="391" 
d="M276 -200q-69 0 -100.5 36t-31.5 102v180q0 37 -7 60t-20.5 36.5t-34.5 18.5t-49 5v64q28 0 49 5t34.5 18.5t20.5 36.5t7 60v180q0 66 31.5 102t100.5 36h77v-64h-44q-41 0 -59.5 -19.5t-18.5 -57.5v-184q0 -37 -5.5 -61.5t-16.5 -40.5t-27 -25.5t-36 -16.5v-2
q20 -7 36 -16.5t27 -25.5t16.5 -40.5t5.5 -61.5v-184q0 -38 18.5 -57.5t59.5 -19.5h44v-64h-77z" />
    <glyph glyph-name="bar" unicode="|" horiz-adv-x="355" 
d="M135 740h84v-940h-84v940z" />
    <glyph glyph-name="braceright" unicode="}" horiz-adv-x="391" 
d="M38 -136h44q41 0 59.5 19.5t18.5 57.5v189q0 37 5.5 60.5t16.5 39t27 24t36 15.5v2q-20 7 -36 15.5t-27 24t-16.5 39t-5.5 60.5v189q0 38 -17 59t-58 21h-44l-3 61h82q69 0 98 -33.5t29 -99.5v-185q0 -37 7 -60t20.5 -36.5t34.5 -18.5t49 -5v-64q-28 0 -49 -5
t-34.5 -18.5t-20.5 -36.5t-7 -60v-185q0 -66 -29 -99.5t-98 -33.5h-82v64z" />
    <glyph glyph-name="asciitilde" unicode="~" horiz-adv-x="508" 
d="M328 407q-22 0 -42 9t-38 19.5t-34.5 19t-31.5 8.5q-22 0 -31.5 -12.5t-9.5 -41.5h-53q0 63 23.5 91t68.5 28q22 0 42 -8.5t38 -19t34.5 -19.5t32.5 -9q21 0 31 12.5t10 41.5h51q0 -62 -23.5 -90.5t-67.5 -28.5z" />
    <glyph glyph-name="nonbreakingspace" unicode="&#xa0;" horiz-adv-x="117" 
 />
    <glyph glyph-name="exclamdown" unicode="&#xa1;" horiz-adv-x="321" 
d="M131 532h56l26 -532h-107zM108 740h103v-103h-103v103z" />
    <glyph glyph-name="cent" unicode="&#xa2;" horiz-adv-x="538" 
d="M298 467h-12q-28 0 -56.5 -10.5t-51 -34.5t-36.5 -62.5t-14 -95.5q0 -63 18 -106.5t48 -68.5zM171 17q-54 31 -89.5 93t-35.5 154q0 72 21 123.5t55.5 85.5t78 50t87.5 16h14.5t13.5 -1l28 100h54l-31 -111q51 -18 81 -55t48 -81l-70 -30q-30 74 -82 96l-108 -391
q21 -7 48 -7q51 0 85 25t61 83l68 -28q-15 -33 -35 -60.5t-46.5 -47.5t-60 -31t-75.5 -11q-31 0 -61 8l-35 -126h-55z" />
    <glyph glyph-name="sterling" unicode="&#xa3;" horiz-adv-x="624" 
d="M234 101q-22 19 -43 32t-44 13q-26 0 -41 -15t-15 -40q0 -23 15.5 -36.5t38.5 -13.5q62 0 89 60zM88 354v64h94q-19 34 -32.5 68.5t-13.5 76.5t13.5 77t39 60.5t62 39.5t82.5 14q54 0 91 -16.5t61 -43t36.5 -60t16.5 -68.5l-80 -12q-3 27 -10.5 50t-22.5 40t-37.5 26.5
t-54.5 9.5q-54 0 -83 -31.5t-29 -84.5q0 -39 16 -74t36 -72h173v-64h-142q13 -29 21 -61t8 -70q0 -60 -17 -108q27 -22 55 -39.5t60 -17.5q48 0 67.5 30t23.5 98h78q-1 -42 -9.5 -78.5t-27.5 -63.5t-49 -42.5t-74 -15.5q-48 0 -86 22t-70 50q-52 -72 -143 -72q-21 0 -41 6.5
t-36.5 19t-26.5 32t-10 45.5q0 52 33 83.5t87 31.5q30 0 56 -11.5t50 -28.5q3 23 3 52q0 40 -11 73.5t-27 64.5h-130z" />
    <glyph glyph-name="currency" unicode="&#xa4;" horiz-adv-x="721" 
d="M21 411v65h124q11 72 37 124t62.5 86.5t81.5 51t93 16.5q53 0 92 -15t68 -43t48.5 -66t32.5 -85l-79 -25q-11 38 -23.5 67t-31 49t-44 30.5t-63.5 10.5q-70 0 -121 -48.5t-68 -152.5h214v-65h-221q-1 -8 -1 -17v-18q0 -14 0.5 -26.5t0.5 -24.5h221v-66h-213
q33 -197 190 -197q71 0 109.5 41.5t60.5 125.5l79 -23q-13 -49 -35 -90t-53 -69.5t-71 -44.5t-91 -16t-96 16.5t-81 50.5t-61 85t-36 121h-125v66h117q-1 12 -1 24v24v19.5t1 18.5h-117z" />
    <glyph glyph-name="yen" unicode="&#xa5;" horiz-adv-x="629" 
d="M270 117h-189v64h189v88h-189v64h186l-243 407h94l198 -336l197 336h92l-245 -407h189v-64h-191v-88h191v-64h-191v-117h-88v117z" />
    <glyph glyph-name="brokenbar" unicode="&#xa6;" horiz-adv-x="355" 
d="M135 209h84v-409h-84v409zM135 740h84v-409h-84v409z" />
    <glyph glyph-name="section" unicode="&#xa7;" horiz-adv-x="540" 
d="M310 136q48 22 73.5 51t25.5 64q0 20 -6.5 36.5t-24.5 33.5t-49 37.5t-80 49.5q-5 2 -10 5t-10 5q-45 -21 -71.5 -50.5t-26.5 -64.5q0 -20 6.5 -36.5t24.5 -33.5t49 -37.5t80 -49.5q5 -2 10 -5t9 -5zM270 -200q-50 0 -85 11.5t-58 31.5t-36.5 46.5t-21.5 55.5l70 24
q7 -24 16.5 -42.5t24 -31.5t36 -20t51.5 -7q56 0 78.5 25.5t22.5 58.5q0 17 -6 32.5t-20 30.5t-38 32t-59 37q-49 29 -85 52.5t-59.5 46.5t-35 49t-11.5 59q0 30 11 55t29 45t39.5 35.5t42.5 26.5q-26 19 -43.5 36t-28 34.5t-15 35.5t-4.5 39q0 30 12.5 58.5t36 50t58 34.5
t78.5 13q51 0 86.5 -11.5t59.5 -31.5t37.5 -46.5t20.5 -55.5l-72 -26q-14 48 -43.5 76t-85.5 28q-57 0 -81.5 -26t-24.5 -59q0 -17 6.5 -32.5t21.5 -30.5t39.5 -32t59.5 -37q49 -28 85 -52t59.5 -47t35 -49t11.5 -59q0 -30 -11 -55t-28 -45.5t-39 -36t-43 -26.5
q26 -19 43 -36t26.5 -34t13 -35t3.5 -39q0 -30 -11.5 -58.5t-34.5 -50t-56.5 -34.5t-77.5 -13z" />
    <glyph glyph-name="dieresis" unicode="&#xa8;" horiz-adv-x="510" 
d="M119 677h88v-94h-88v94zM301 677h89v-94h-89v94z" />
    <glyph glyph-name="copyright" unicode="&#xa9;" horiz-adv-x="864" 
d="M430 155q-40 0 -72.5 15.5t-55.5 44.5t-35.5 70t-12.5 91q0 48 12.5 88t35.5 68.5t55.5 44.5t73.5 16q66 0 103.5 -35t53.5 -98l-54 -14q-14 47 -37 71.5t-66 24.5q-54 0 -85.5 -45.5t-31.5 -120.5q0 -78 31.5 -123t86.5 -45q81 0 106 102q15 -3 26 -7q10 -3 19 -5t11 -2
q-17 -66 -57.5 -103.5t-106.5 -37.5zM433 32q70 0 130.5 26.5t105 72t70 107t25.5 131.5q0 71 -25.5 132.5t-70.5 107.5t-105.5 72.5t-130.5 26.5t-130.5 -26.5t-105.5 -72t-70.5 -107t-25.5 -131.5t25.5 -132t70.5 -108t106 -72.5t131 -26.5zM432 -14q-81 0 -150.5 30
t-121 81.5t-81 121.5t-29.5 150t29.5 150.5t81.5 122.5t121.5 82t150.5 30q80 0 149.5 -30t121 -81.5t81 -121.5t29.5 -150t-29.5 -150.5t-81.5 -122.5t-121.5 -82t-149.5 -30z" />
    <glyph glyph-name="ordfeminine" unicode="&#xaa;" horiz-adv-x="421" 
d="M174 421q37 0 67 15t55 38v100q-54 -8 -89.5 -19t-55.5 -24t-28 -28t-8 -32q0 -25 16 -37.5t43 -12.5zM157 367q-50 0 -79 25t-29 70q0 29 13 53t42 43.5t76 34t116 23.5v16q0 67 -67 67q-42 0 -72.5 -14.5t-59.5 -40.5l-37 37q34 32 75 51.5t101 19.5q66 0 96 -32.5
t30 -91.5v-161q0 -32 2.5 -53.5t10.5 -38.5h-70q-8 24 -9 50q-30 -27 -64.5 -42.5t-74.5 -15.5z" />
    <glyph glyph-name="guillemotleft" unicode="&#xab;" horiz-adv-x="542" 
d="M41 265l151 263h87l-147 -263l147 -265h-87zM250 265l153 263h86l-149 -263l149 -265h-86z" />
    <glyph glyph-name="logicalnot" unicode="&#xac;" 
d="M349 228v110h-111l6 -104zM412 228l104 6l6 104h-110v-110zM349 512l-105 -6l-6 -105h111v111zM412 512v-111h110l-6 105zM153 168v72l31 -2l6 100l-180 -15v93l180 -15l-6 102l-31 -2v72l27 -2l-2 26h72l-2 -30l101 -7l-15 180h93l-15 -180l101 7l-2 30h72l-2 -26l27 2
v-72l-31 2l-7 -102l180 15v-93l-180 15l7 -100l31 2v-72l-27 2l2 -28h-72l2 32l-101 6l15 -180h-93l15 180l-101 -6l2 -32h-72l2 28z" />
    <glyph glyph-name="registered" unicode="&#xae;" horiz-adv-x="864" 
d="M436 392q45 0 70 16t25 57q0 38 -25 54t-71 16h-85v-143h86zM291 167v421h148q72 0 111.5 -30.5t39.5 -89.5q0 -51 -25.5 -78t-67.5 -38l100 -185h-64l-95 178h-88v-178h-59zM433 32q70 0 130.5 26.5t105 72t70 107t25.5 131.5q0 71 -25.5 132.5t-70.5 107.5t-105.5 72.5
t-130.5 26.5t-130.5 -26.5t-105.5 -72t-70.5 -107t-25.5 -131.5t25.5 -132t70.5 -108t106 -72.5t131 -26.5zM432 -14q-81 0 -150.5 30t-121 81.5t-81 121.5t-29.5 150t29.5 150.5t81.5 122.5t121.5 82t150.5 30q80 0 149.5 -30t121 -81.5t81 -121.5t29.5 -150t-29.5 -150.5
t-81.5 -122.5t-121.5 -82t-149.5 -30z" />
    <glyph glyph-name="macron" unicode="&#xaf;" horiz-adv-x="500" 
d="M104 687h292v-69h-292v69z" />
    <glyph glyph-name="macron" unicode="&#x2c9;" horiz-adv-x="500" 
d="M104 687h292v-69h-292v69z" />
    <glyph glyph-name="degree" unicode="&#xb0;" horiz-adv-x="405" 
d="M203 517q38 0 62.5 25.5t24.5 67.5t-24.5 67t-62.5 25t-63 -25t-25 -67t25 -67.5t63 -25.5zM203 466q-31 0 -58 11t-46.5 30t-30.5 45.5t-11 57.5t11 57.5t30.5 45.5t46.5 29.5t58 10.5t57.5 -10.5t46 -29.5t30.5 -45.5t11 -57.5t-11 -57.5t-30.5 -45.5t-46 -30
t-57.5 -11z" />
    <glyph glyph-name="plusminus" unicode="&#xb1;" horiz-adv-x="881" 
d="M714 740h86v-740h-86v740zM117 457h-92v71h92v71q0 67 37 105t115 38q13 0 27 -1.5t21 -1.5v-70q-7 2 -17 2h-18q-36 0 -57.5 -17.5t-21.5 -56.5v-69h213v68q0 67 37 106.5t115 39.5q11 0 25.5 -1.5t21.5 -1.5v-70q-6 2 -16.5 2h-18.5q-36 0 -57 -17.5t-21 -56.5v-69h109
v-71h-109v-457h-86v457h-213v-457h-86v457z" />
    <glyph glyph-name="twosuperior" unicode="&#xb2;" horiz-adv-x="452" 
d="M65 296q0 25 6.5 49.5t23 50t46 52.5t75.5 56q46 30 67.5 53.5t21.5 56.5q0 32 -19 52t-55 20q-32 0 -58 -18.5t-48 -60.5l-56 33q56 110 164 110q69 0 107 -37t38 -97q0 -46 -26 -83t-94 -78q-52 -32 -78.5 -61t-31.5 -54h232v-64h-315v20z" />
    <glyph glyph-name="threesuperior" unicode="&#xb3;" horiz-adv-x="452" 
d="M224 267q-54 0 -98 24.5t-73 72.5l51 39q26 -41 55.5 -56.5t61.5 -15.5q45 0 68.5 21.5t23.5 56.5q0 42 -28 63.5t-97 21.5h-28v56h31q61 0 87 18t26 53q0 29 -18.5 47t-59.5 18q-59 0 -107 -56l-47 43q32 37 71 57t87 20q38 0 66 -10t46 -26.5t27 -38.5t9 -47
q0 -37 -19 -64t-58 -41q47 -14 67.5 -43t20.5 -71q0 -63 -44.5 -102.5t-120.5 -39.5z" />
    <glyph glyph-name="acute" unicode="&#xb4;" horiz-adv-x="500" 
d="M259 743h105l-142 -158h-57z" />
    <glyph glyph-name="mu" unicode="&#xb5;" horiz-adv-x="593" 
d="M76 528h86v-363q0 -52 23.5 -78t74.5 -26q48 0 88.5 23t82.5 62v382h86v-528h-86v85q-36 -35 -79.5 -62t-97.5 -30q-29 -1 -52 5t-40 24v-222h-86v728z" />
    <glyph glyph-name="mu" unicode="&#x3bc;" horiz-adv-x="593" 
d="M76 528h86v-363q0 -52 23.5 -78t74.5 -26q48 0 88.5 23t82.5 62v382h86v-528h-86v85q-36 -35 -79.5 -62t-97.5 -30q-29 -1 -52 5t-40 24v-222h-86v728z" />
    <glyph glyph-name="paragraph" unicode="&#xb6;" horiz-adv-x="623" 
d="M301 333q-118 2 -180.5 52.5t-62.5 149.5q0 44 15 81t44 65t72 43.5t98 15.5h251v-940h-68v870h-100v-870h-69v533z" />
    <glyph glyph-name="periodcentered" unicode="&#xb7;" horiz-adv-x="273" 
d="M84 374h105v-105h-105v105z" />
    <glyph glyph-name="periodcentered" unicode="&#x2219;" horiz-adv-x="273" 
d="M84 374h105v-105h-105v105z" />
    <glyph glyph-name="cedilla" unicode="&#xb8;" horiz-adv-x="500" 
d="M253 -196q-36 0 -69 9.5t-59 26.5l20 33q23 -15 48.5 -22.5t51.5 -7.5q36 0 52.5 12t16.5 33q0 34 -40 34q-16 0 -27.5 -6t-22.5 -14l-31 15l26 83h47l-15 -52q11 7 24.5 11t31.5 4q28 0 49.5 -17.5t21.5 -50.5q0 -47 -36.5 -69t-88.5 -22z" />
    <glyph glyph-name="onesuperior" unicode="&#xb9;" horiz-adv-x="406" 
d="M92 338h84v324q-17 -8 -38 -11.5t-44 -3.5v63q32 1 53.5 7.5t35.5 21.5h66v-401h75v-63h-232v63z" />
    <glyph glyph-name="ordmasculine" unicode="&#xba;" horiz-adv-x="436" 
d="M218 420q52 0 80 40t28 100q0 28 -6.5 53t-20 44.5t-34 31t-47.5 11.5q-52 0 -80 -40t-28 -100q0 -28 6.5 -53.5t20 -44.5t33.5 -30.5t48 -11.5zM218 367q-34 0 -66 12t-56 36t-38.5 60t-14.5 84q0 49 14.5 85t38.5 60t56 36t66 12q35 0 66.5 -12t55.5 -36t38.5 -60
t14.5 -85q0 -48 -14.5 -84t-38.5 -60t-55.5 -36t-66.5 -12z" />
    <glyph glyph-name="guillemotright" unicode="&#xbb;" horiz-adv-x="542" 
d="M201 265l-148 263h87l152 -263l-152 -265h-87zM411 265l-148 263h86l152 -263l-152 -265h-86z" />
    <glyph glyph-name="onequarter" unicode="&#xbc;" horiz-adv-x="958" 
d="M752 171v199l-132 -199h132zM751 109h-213v48l207 309h79v-295h75v-62h-75v-109h-73v109zM673 740h78l-443 -740h-78zM92 338h84v324q-17 -8 -38 -11.5t-44 -3.5v63q32 1 53.5 7.5t35.5 21.5h66v-401h75v-63h-232v63z" />
    <glyph glyph-name="onehalf" unicode="&#xbd;" horiz-adv-x="995" 
d="M608 21q0 25 6.5 49.5t23 50t46 52t75.5 55.5q46 30 67.5 53.5t21.5 56.5q0 32 -19 52t-56 20q-32 0 -58 -18.5t-48 -60.5l-55 34q57 109 163 109q69 0 107 -37t38 -97q0 -46 -26 -82.5t-94 -77.5q-52 -32 -78.5 -61.5t-30.5 -54.5h232v-64h-315v21zM673 740h78
l-443 -740h-78zM92 338h84v324q-17 -8 -38 -11.5t-44 -3.5v63q32 1 53.5 7.5t35.5 21.5h66v-401h75v-63h-232v63z" />
    <glyph glyph-name="threequarters" unicode="&#xbe;" horiz-adv-x="987" 
d="M781 171v199l-132 -199h132zM780 109h-213v48l207 309h79v-295h75v-62h-75v-109h-73v109zM702 740h78l-442 -740h-78zM224 267q-54 0 -98 24.5t-73 72.5l51 39q26 -41 55.5 -56.5t61.5 -15.5q45 0 68.5 21.5t23.5 56.5q0 42 -28 63.5t-97 21.5h-28v56h31q61 0 87 18
t26 53q0 29 -18.5 47t-59.5 18q-59 0 -107 -56l-47 43q32 37 71 57t87 20q38 0 66 -10t46 -26.5t27 -38.5t9 -47q0 -37 -19 -64t-58 -41q47 -14 67.5 -43t20.5 -71q0 -63 -44.5 -102.5t-120.5 -39.5z" />
    <glyph glyph-name="questiondown" unicode="&#xbf;" horiz-adv-x="549" 
d="M269 -14q-51 0 -91.5 13.5t-69 37.5t-43.5 57t-15 73q0 36 10 63t27 48.5t40 38.5t49 32q32 18 50 34t27 36t11 47t2 67h70q3 -31 3 -67q0 -54 -22 -89t-70 -64q-28 -17 -49 -31.5t-34.5 -30t-20 -34.5t-6.5 -45q0 -51 36.5 -79.5t101.5 -28.5q62 0 104.5 27.5t73.5 68.5
l59 -49q-21 -27 -45.5 -49.5t-54 -39.5t-65 -26.5t-78.5 -9.5zM250 740h102v-103h-102v103z" />
    <glyph glyph-name="Agrave" unicode="&#xc0;" horiz-adv-x="680" 
d="M32 0zM457 289l-118 347h-2l-120 -347h240zM294 743h92l262 -743h-91l-73 212h-294l-73 -212h-85zM173 944h105l94 -158h-57z" />
    <glyph glyph-name="Aacute" unicode="&#xc1;" horiz-adv-x="680" 
d="M32 0zM457 289l-118 347h-2l-120 -347h240zM294 743h92l262 -743h-91l-73 212h-294l-73 -212h-85zM403 944h105l-142 -158h-57z" />
    <glyph glyph-name="Acircumflex" unicode="&#xc2;" horiz-adv-x="680" 
d="M32 0zM457 289l-118 347h-2l-120 -347h240zM294 743h92l262 -743h-91l-73 212h-294l-73 -212h-85zM308 944h63l129 -161h-52l-109 94l-108 -94h-52z" />
    <glyph glyph-name="Atilde" unicode="&#xc3;" horiz-adv-x="680" 
d="M415 781q-22 0 -42 9t-38 19.5t-34.5 19t-31.5 8.5q-22 0 -31.5 -12.5t-9.5 -41.5h-53q0 63 23.5 91t68.5 28q22 0 42 -8.5t38 -19t34.5 -19.5t32.5 -9q21 0 31 12.5t10 41.5h51q0 -62 -23.5 -90.5t-67.5 -28.5zM457 289l-118 347h-2l-120 -347h240zM294 743h92l262 -743
h-91l-73 212h-294l-73 -212h-85z" />
    <glyph glyph-name="Adieresis" unicode="&#xc4;" horiz-adv-x="680" 
d="M32 0zM457 289l-118 347h-2l-120 -347h240zM294 743h92l262 -743h-91l-73 212h-294l-73 -212h-85zM204 878h88v-94h-88v94zM386 878h89v-94h-89v94z" />
    <glyph glyph-name="Aring" unicode="&#xc5;" horiz-adv-x="680" 
d="M457 289l-118 347h-2l-120 -347h240zM340 745q23 0 37.5 15.5t14.5 39.5q0 23 -14.5 38.5t-37.5 15.5t-37.5 -15.5t-14.5 -38.5q0 -24 14.5 -39.5t37.5 -15.5zM648 0h-91l-73 212h-294l-73 -212h-85l254 721q-19 12 -30 32.5t-11 46.5q0 40 26.5 66.5t68.5 26.5
t68.5 -26.5t26.5 -66.5q0 -26 -11 -46.5t-30 -32.5z" />
    <glyph glyph-name="AE" unicode="&#xc6;" horiz-adv-x="1010" 
d="M493 306v362h-1l-205 -362h206zM446 740h499v-81h-365v-231h271v-79h-271v-269h386v-80h-473v228h-250l-129 -228h-89z" />
    <glyph glyph-name="Ccedilla" unicode="&#xc7;" horiz-adv-x="705" 
d="M370 -196q-36 0 -69.5 9.5t-59.5 26.5l21 33q23 -15 48 -22.5t51 -7.5q36 0 52.5 12t16.5 33q0 34 -40 34q-15 0 -27 -6t-23 -14l-30 15l21 71q-63 7 -114 36.5t-87 79t-55.5 117.5t-19.5 152q0 86 23 156t64.5 120t99.5 77.5t127 27.5q59 0 104.5 -16.5t79 -46
t55.5 -71.5t35 -93l-84 -23q-24 85 -67 130t-124 45q-52 0 -93.5 -22t-70.5 -62t-44.5 -96t-15.5 -125q0 -73 16 -131.5t45.5 -99t71 -62t93.5 -21.5q79 0 128.5 47t72.5 138l83 -19q-26 -109 -94.5 -173t-180.5 -67l-12 -38q11 7 24.5 11t31.5 4q29 0 50 -17.5t21 -50.5
q0 -47 -36.5 -69t-87.5 -22z" />
    <glyph glyph-name="Egrave" unicode="&#xc8;" horiz-adv-x="609" 
d="M171 944h105l94 -158h-57zM91 740h454v-81h-366v-231h272v-79h-272v-269h387v-80h-475v740z" />
    <glyph glyph-name="Eacute" unicode="&#xc9;" horiz-adv-x="609" 
d="M91 0zM91 740h454v-81h-366v-231h272v-79h-272v-269h387v-80h-475v740zM360 944h105l-142 -158h-57z" />
    <glyph glyph-name="Ecircumflex" unicode="&#xca;" horiz-adv-x="609" 
d="M286 944h63l129 -161h-52l-109 94l-108 -94h-52zM91 740h454v-81h-366v-231h272v-79h-272v-269h387v-80h-475v740z" />
    <glyph glyph-name="Edieresis" unicode="&#xcb;" horiz-adv-x="609" 
d="M91 0zM91 740h454v-81h-366v-231h272v-79h-272v-269h387v-80h-475v740zM187 878h88v-94h-88v94zM369 878h89v-94h-89v94z" />
    <glyph glyph-name="Igrave" unicode="&#xcc;" horiz-adv-x="290" 
d="M-16 944h105l94 -158h-57zM101 740h88v-740h-88v740z" />
    <glyph glyph-name="Iacute" unicode="&#xcd;" horiz-adv-x="290" 
d="M101 0zM101 740h88v-740h-88v740zM211 944h105l-142 -158h-57z" />
    <glyph glyph-name="Icircumflex" unicode="&#xce;" horiz-adv-x="290" 
d="M113 944h63l129 -161h-52l-109 94l-108 -94h-52zM101 740h88v-740h-88v740z" />
    <glyph glyph-name="Idieresis" unicode="&#xcf;" horiz-adv-x="290" 
d="M10 0zM101 740h88v-740h-88v740zM10 878h88v-94h-88v94zM192 878h89v-94h-89v94z" />
    <glyph glyph-name="Eth" unicode="&#xd0;" horiz-adv-x="715" 
d="M297 79q134 0 204 69.5t70 223.5q0 149 -70.5 218t-205.5 69h-116v-235h158v-72h-158v-273h118zM91 352h-80v72h80v316h195q179 0 276 -91t97 -279q0 -93 -25 -162.5t-73 -115.5t-117.5 -69t-157.5 -23h-195v352z" />
    <glyph glyph-name="Ntilde" unicode="&#xd1;" horiz-adv-x="749" 
d="M91 0zM91 740h93l389 -585h2v585h83v-740h-79l-403 601h-2v-601h-83v740zM457 781q-22 0 -42 9t-38 19.5t-34.5 19t-31.5 8.5q-22 0 -31.5 -12.5t-9.5 -41.5h-53q0 63 23.5 91t68.5 28q22 0 42 -8.5t38 -19t34.5 -19.5t32.5 -9q21 0 31 12.5t10 41.5h51
q0 -62 -23.5 -90.5t-67.5 -28.5z" />
    <glyph glyph-name="Ograve" unicode="&#xd2;" horiz-adv-x="749" 
d="M55 0zM375 65q50 0 92.5 20.5t73 59.5t47.5 96t17 129t-17 128.5t-47.5 95.5t-73 59.5t-92.5 20.5q-51 0 -93.5 -20.5t-73 -59.5t-47.5 -95.5t-17 -128.5t17 -129t47.5 -96t73 -59.5t93.5 -20.5zM375 -14q-69 0 -127.5 26.5t-101 76t-67 121t-24.5 160.5t24.5 160.5
t67 121t101 76t127.5 26.5t127 -26.5t100.5 -76t66.5 -121t24 -160.5t-24 -160.5t-66.5 -121t-100.5 -76t-127 -26.5zM216 944h105l94 -158h-57z" />
    <glyph glyph-name="Oacute" unicode="&#xd3;" horiz-adv-x="749" 
d="M55 0zM375 65q50 0 92.5 20.5t73 59.5t47.5 96t17 129t-17 128.5t-47.5 95.5t-73 59.5t-92.5 20.5q-51 0 -93.5 -20.5t-73 -59.5t-47.5 -95.5t-17 -128.5t17 -129t47.5 -96t73 -59.5t93.5 -20.5zM375 -14q-69 0 -127.5 26.5t-101 76t-67 121t-24.5 160.5t24.5 160.5
t67 121t101 76t127.5 26.5t127 -26.5t100.5 -76t66.5 -121t24 -160.5t-24 -160.5t-66.5 -121t-100.5 -76t-127 -26.5zM424 944h105l-142 -158h-57z" />
    <glyph glyph-name="Ocircumflex" unicode="&#xd4;" horiz-adv-x="749" 
d="M342 944h63l129 -161h-52l-109 94l-108 -94h-52zM375 65q50 0 92.5 20.5t73 59.5t47.5 96t17 129t-17 128.5t-47.5 95.5t-73 59.5t-92.5 20.5q-51 0 -93.5 -20.5t-73 -59.5t-47.5 -95.5t-17 -128.5t17 -129t47.5 -96t73 -59.5t93.5 -20.5zM375 -14q-69 0 -127.5 26.5
t-101 76t-67 121t-24.5 160.5t24.5 160.5t67 121t101 76t127.5 26.5t127 -26.5t100.5 -76t66.5 -121t24 -160.5t-24 -160.5t-66.5 -121t-100.5 -76t-127 -26.5z" />
    <glyph glyph-name="Otilde" unicode="&#xd5;" horiz-adv-x="749" 
d="M55 0zM375 65q50 0 92.5 20.5t73 59.5t47.5 96t17 129t-17 128.5t-47.5 95.5t-73 59.5t-92.5 20.5q-51 0 -93.5 -20.5t-73 -59.5t-47.5 -95.5t-17 -128.5t17 -129t47.5 -96t73 -59.5t93.5 -20.5zM375 -14q-69 0 -127.5 26.5t-101 76t-67 121t-24.5 160.5t24.5 160.5
t67 121t101 76t127.5 26.5t127 -26.5t100.5 -76t66.5 -121t24 -160.5t-24 -160.5t-66.5 -121t-100.5 -76t-127 -26.5zM448 781q-22 0 -42 9t-38 19.5t-34.5 19t-31.5 8.5q-22 0 -31.5 -12.5t-9.5 -41.5h-53q0 63 23.5 91t68.5 28q22 0 42 -8.5t38 -19t34.5 -19.5t32.5 -9
q21 0 31 12.5t10 41.5h51q0 -62 -23.5 -90.5t-67.5 -28.5z" />
    <glyph glyph-name="Odieresis" unicode="&#xd6;" horiz-adv-x="749" 
d="M55 0zM375 65q50 0 92.5 20.5t73 59.5t47.5 96t17 129t-17 128.5t-47.5 95.5t-73 59.5t-92.5 20.5q-51 0 -93.5 -20.5t-73 -59.5t-47.5 -95.5t-17 -128.5t17 -129t47.5 -96t73 -59.5t93.5 -20.5zM375 -14q-69 0 -127.5 26.5t-101 76t-67 121t-24.5 160.5t24.5 160.5
t67 121t101 76t127.5 26.5t127 -26.5t100.5 -76t66.5 -121t24 -160.5t-24 -160.5t-66.5 -121t-100.5 -76t-127 -26.5zM238 878h88v-94h-88v94zM420 878h89v-94h-89v94z" />
    <glyph glyph-name="multiply" unicode="&#xd7;" horiz-adv-x="638" 
d="M98 149l169 169l-169 169l51 51l169 -170l169 170l51 -51l-169 -169l170 -169l-51 -51l-169 170l-170 -171z" />
    <glyph glyph-name="Oslash" unicode="&#xd8;" horiz-adv-x="749" 
d="M221 128q62 -65 154 -65q51 0 93 21t73 60.5t48 96.5t17 129q0 60 -11.5 108.5t-33.5 86.5zM526 612q-59 64 -151 64q-51 0 -94 -20.5t-73.5 -60t-48 -96.5t-17.5 -129q0 -60 11.5 -109t33.5 -87zM618 632q35 -49 55 -115t20 -147q0 -89 -24 -160.5t-66.5 -121
t-100.5 -76t-127 -26.5q-59 0 -110 19.5t-93 56.5l-65 -82l-49 36l73 92q-36 49 -56 115t-20 147q0 89 24.5 160.5t67 121t101 76t127.5 26.5q59 0 110 -19.5t91 -56.5l66 82l48 -36z" />
    <glyph glyph-name="Ugrave" unicode="&#xd9;" horiz-adv-x="717" 
d="M84 0zM359 -13q-71 0 -123 20.5t-85.5 56.5t-50 85.5t-16.5 106.5v484h88v-472q0 -45 11 -82t34 -63.5t58.5 -41.5t84.5 -15q97 0 141.5 55t44.5 145v474h87v-482q0 -58 -17 -107.5t-51.5 -86t-85.5 -57t-120 -20.5zM206 944h105l94 -158h-57z" />
    <glyph glyph-name="Uacute" unicode="&#xda;" horiz-adv-x="717" 
d="M84 0zM359 -13q-71 0 -123 20.5t-85.5 56.5t-50 85.5t-16.5 106.5v484h88v-472q0 -45 11 -82t34 -63.5t58.5 -41.5t84.5 -15q97 0 141.5 55t44.5 145v474h87v-482q0 -58 -17 -107.5t-51.5 -86t-85.5 -57t-120 -20.5zM399 944h105l-142 -158h-57z" />
    <glyph glyph-name="Ucircumflex" unicode="&#xdb;" horiz-adv-x="717" 
d="M326 944h63l129 -161h-52l-109 94l-108 -94h-52zM359 -13q-71 0 -123 20.5t-85.5 56.5t-50 85.5t-16.5 106.5v484h88v-472q0 -45 11 -82t34 -63.5t58.5 -41.5t84.5 -15q97 0 141.5 55t44.5 145v474h87v-482q0 -58 -17 -107.5t-51.5 -86t-85.5 -57t-120 -20.5z" />
    <glyph glyph-name="Udieresis" unicode="&#xdc;" horiz-adv-x="717" 
d="M222 878h88v-94h-88v94zM404 878h89v-94h-89v94zM359 -13q-71 0 -123 20.5t-85.5 56.5t-50 85.5t-16.5 106.5v484h88v-472q0 -45 11 -82t34 -63.5t58.5 -41.5t84.5 -15q97 0 141.5 55t44.5 145v474h87v-482q0 -58 -17 -107.5t-51.5 -86t-85.5 -57t-120 -20.5z" />
    <glyph glyph-name="Yacute" unicode="&#xdd;" horiz-adv-x="631" 
d="M22 0zM271 324l-249 416h94l201 -341l200 341h92l-250 -416v-324h-88v324zM327 952h105l-142 -158h-57z" />
    <glyph glyph-name="Thorn" unicode="&#xde;" horiz-adv-x="653" 
d="M339 255q89 0 135 30.5t46 105.5q0 72 -45.5 102t-136.5 30h-159v-268h160zM91 740h88v-135h162q60 0 109 -12.5t84.5 -38t55 -65.5t19.5 -95q0 -60 -21 -101.5t-58 -67.5t-87 -38t-108 -12h-156v-175h-88v740z" />
    <glyph glyph-name="germandbls" unicode="&#xdf;" horiz-adv-x="626" 
d="M382 -11q-57 0 -96.5 17t-62.5 43l47 52q22 -20 48 -31.5t63 -11.5q54 0 86.5 39t32.5 106q0 46 -16 77.5t-46 51t-73 29.5t-97 12v65q44 0 75.5 9.5t51 26t28.5 38.5t9 48q0 52 -35 79.5t-97 27.5q-67 0 -102.5 -37.5t-35.5 -115.5v-514h-86v510q0 114 61 172t165 58
q97 0 154.5 -45t57.5 -130q0 -58 -34.5 -97.5t-94.5 -56.5q39 -5 74.5 -19t62.5 -38.5t43 -60.5t16 -86q0 -101 -53.5 -159.5t-145.5 -58.5z" />
    <glyph glyph-name="agrave" unicode="&#xe0;" horiz-adv-x="553" 
d="M134 743h105l94 -158h-57zM218 60q53 0 97.5 20.5t81.5 56.5v148q-75 -12 -126.5 -27t-83 -33.5t-45 -40t-13.5 -46.5q0 -38 23.5 -58t65.5 -20zM193 -8q-69 0 -109 34.5t-40 98.5q0 40 18.5 74.5t60 62t109 48.5t165.5 35v24q0 98 -100 98q-60 0 -106 -23t-85 -57
l-45 54q46 42 106 70t139 28q47 0 80.5 -12t54.5 -34.5t31 -55.5t10 -74v-233q0 -48 3.5 -79t11.5 -51h-88q-5 17 -8.5 33.5t-3.5 39.5q-87 -81 -204 -81z" />
    <glyph glyph-name="aacute" unicode="&#xe1;" horiz-adv-x="553" 
d="M44 0zM218 60q53 0 97.5 20.5t81.5 56.5v148q-75 -12 -126.5 -27t-83 -33.5t-45 -40t-13.5 -46.5q0 -38 23.5 -58t65.5 -20zM193 -8q-69 0 -109 34.5t-40 98.5q0 40 18.5 74.5t60 62t109 48.5t165.5 35v24q0 98 -100 98q-60 0 -106 -23t-85 -57l-45 54q46 42 106 70
t139 28q47 0 80.5 -12t54.5 -34.5t31 -55.5t10 -74v-233q0 -48 3.5 -79t11.5 -51h-88q-5 17 -8.5 33.5t-3.5 39.5q-87 -81 -204 -81zM331 743h105l-142 -158h-57z" />
    <glyph glyph-name="acircumflex" unicode="&#xe2;" horiz-adv-x="553" 
d="M44 0zM218 60q53 0 97.5 20.5t81.5 56.5v148q-75 -12 -126.5 -27t-83 -33.5t-45 -40t-13.5 -46.5q0 -38 23.5 -58t65.5 -20zM193 -8q-69 0 -109 34.5t-40 98.5q0 40 18.5 74.5t60 62t109 48.5t165.5 35v24q0 98 -100 98q-60 0 -106 -23t-85 -57l-45 54q46 42 106 70
t139 28q47 0 80.5 -12t54.5 -34.5t31 -55.5t10 -74v-233q0 -48 3.5 -79t11.5 -51h-88q-5 17 -8.5 33.5t-3.5 39.5q-87 -81 -204 -81zM251 743h63l129 -161h-52l-109 94l-108 -94h-52z" />
    <glyph glyph-name="atilde" unicode="&#xe3;" horiz-adv-x="553" 
d="M44 0zM218 60q53 0 97.5 20.5t81.5 56.5v148q-75 -12 -126.5 -27t-83 -33.5t-45 -40t-13.5 -46.5q0 -38 23.5 -58t65.5 -20zM193 -8q-69 0 -109 34.5t-40 98.5q0 40 18.5 74.5t60 62t109 48.5t165.5 35v24q0 98 -100 98q-60 0 -106 -23t-85 -57l-45 54q46 42 106 70
t139 28q47 0 80.5 -12t54.5 -34.5t31 -55.5t10 -74v-233q0 -48 3.5 -79t11.5 -51h-88q-5 17 -8.5 33.5t-3.5 39.5q-87 -81 -204 -81zM355 580q-22 0 -42 9t-38 19.5t-34.5 19t-31.5 8.5q-22 0 -31.5 -12.5t-9.5 -41.5h-53q0 63 23.5 91t68.5 28q22 0 42 -8.5t38 -19
t34.5 -19.5t32.5 -9q21 0 31 12.5t10 41.5h51q0 -62 -23.5 -90.5t-67.5 -28.5z" />
    <glyph glyph-name="adieresis" unicode="&#xe4;" horiz-adv-x="553" 
d="M152 677h88v-94h-88v94zM334 677h89v-94h-89v94zM218 60q53 0 97.5 20.5t81.5 56.5v148q-75 -12 -126.5 -27t-83 -33.5t-45 -40t-13.5 -46.5q0 -38 23.5 -58t65.5 -20zM193 -8q-69 0 -109 34.5t-40 98.5q0 40 18.5 74.5t60 62t109 48.5t165.5 35v24q0 98 -100 98
q-60 0 -106 -23t-85 -57l-45 54q46 42 106 70t139 28q47 0 80.5 -12t54.5 -34.5t31 -55.5t10 -74v-233q0 -48 3.5 -79t11.5 -51h-88q-5 17 -8.5 33.5t-3.5 39.5q-87 -81 -204 -81z" />
    <glyph glyph-name="aring" unicode="&#xe5;" horiz-adv-x="553" 
d="M289 617q23 0 37.5 15.5t14.5 39.5q0 23 -14.5 38.5t-37.5 15.5t-37.5 -15.5t-14.5 -38.5q0 -24 14.5 -39.5t37.5 -15.5zM289 577q-42 0 -68.5 27t-26.5 68q0 40 26.5 66.5t68.5 26.5t68.5 -26.5t26.5 -66.5q0 -41 -26.5 -68t-68.5 -27zM218 60q53 0 97.5 20.5t81.5 56.5
v148q-75 -12 -126.5 -27t-83 -33.5t-45 -40t-13.5 -46.5q0 -38 23.5 -58t65.5 -20zM193 -8q-69 0 -109 34.5t-40 98.5q0 40 18.5 74.5t60 62t109 48.5t165.5 35v24q0 98 -100 98q-60 0 -106 -23t-85 -57l-45 54q46 42 106 70t139 28q47 0 80.5 -12t54.5 -34.5t31 -55.5
t10 -74v-233q0 -48 3.5 -79t11.5 -51h-88q-5 17 -8.5 33.5t-3.5 39.5q-87 -81 -204 -81z" />
    <glyph glyph-name="ae" unicode="&#xe6;" horiz-adv-x="894" 
d="M217 58q104 0 193 93q-15 44 -15 100v21t1 15q-75 -12 -126.5 -28t-83 -35.5t-45 -41.5t-13.5 -47q0 -38 23.5 -57.5t65.5 -19.5zM765 309q-5 71 -39 114.5t-100 43.5q-27 0 -51.5 -9.5t-45 -29t-34 -49t-18.5 -70.5h288zM192 -11q-69 0 -109 35t-40 98q0 41 18.5 75.5
t60 62.5t109 49.5t165.5 35.5v24q0 98 -100 98q-60 0 -106 -23t-85 -57l-44 54q46 42 105.5 70t138.5 28q70 0 104 -28.5t46 -72.5q25 43 70.5 72t101.5 29q45 0 85 -16.5t70 -51t47.5 -87t17.5 -124.5v-15h-372q1 -46 13.5 -80.5t34 -58t50 -35.5t61.5 -12q56 0 92 22.5
t66 63.5l50 -44q-37 -53 -88.5 -82.5t-126.5 -29.5q-61 0 -112.5 27t-83.5 85q-52 -54 -108 -83t-131 -29z" />
    <glyph glyph-name="ccedilla" unicode="&#xe7;" horiz-adv-x="536" 
d="M281 -196q-36 0 -69.5 9.5t-59.5 26.5l21 33q23 -15 48 -22.5t51 -7.5q36 0 52.5 12t16.5 33q0 34 -40 34q-15 0 -27 -6t-23 -14l-30 15l22 76q-40 6 -76 26t-63 54t-42.5 82t-15.5 109q0 72 21 124t55.5 85.5t78 49.5t87.5 16q45 0 78 -12t58 -32.5t42 -47.5t29 -56
l-73 -30q-21 55 -52.5 82.5t-83.5 27.5q-28 0 -55.5 -11.5t-49.5 -36t-35 -64t-13 -95.5q0 -98 42 -153.5t109 -55.5q51 0 83.5 27t58.5 85l71 -28q-15 -32 -34 -59t-44 -46.5t-56.5 -31t-71.5 -12.5l-13 -42q11 7 24.5 11t31.5 4q29 0 50 -17.5t21 -50.5q0 -47 -36.5 -69
t-87.5 -22z" />
    <glyph glyph-name="egrave" unicode="&#xe8;" horiz-adv-x="552" 
d="M122 743h105l94 -158h-57zM423 309q-5 71 -39 114.5t-100 43.5q-27 0 -52 -9.5t-45 -29t-34 -49t-19 -70.5h289zM285 -11q-47 0 -90 17t-76 51.5t-53 86t-20 120.5q0 72 21.5 124t56 85.5t77 49.5t84.5 16q47 0 87 -16.5t69.5 -51t46.5 -87t17 -124.5v-18h-373
q1 -45 14 -79t34 -57t49.5 -35t61.5 -12q57 0 93 22t66 64l50 -44q-37 -53 -88.5 -82.5t-126.5 -29.5z" />
    <glyph glyph-name="eacute" unicode="&#xe9;" horiz-adv-x="552" 
d="M46 0zM423 309q-5 71 -39 114.5t-100 43.5q-27 0 -52 -9.5t-45 -29t-34 -49t-19 -70.5h289zM285 -11q-47 0 -90 17t-76 51.5t-53 86t-20 120.5q0 72 21.5 124t56 85.5t77 49.5t84.5 16q47 0 87 -16.5t69.5 -51t46.5 -87t17 -124.5v-18h-373q1 -45 14 -79t34 -57t49.5 -35
t61.5 -12q57 0 93 22t66 64l50 -44q-37 -53 -88.5 -82.5t-126.5 -29.5zM333 743h105l-142 -158h-57z" />
    <glyph glyph-name="ecircumflex" unicode="&#xea;" horiz-adv-x="552" 
d="M46 0zM423 309q-5 71 -39 114.5t-100 43.5q-27 0 -52 -9.5t-45 -29t-34 -49t-19 -70.5h289zM285 -11q-47 0 -90 17t-76 51.5t-53 86t-20 120.5q0 72 21.5 124t56 85.5t77 49.5t84.5 16q47 0 87 -16.5t69.5 -51t46.5 -87t17 -124.5v-18h-373q1 -45 14 -79t34 -57t49.5 -35
t61.5 -12q57 0 93 22t66 64l50 -44q-37 -53 -88.5 -82.5t-126.5 -29.5zM251 743h63l129 -161h-52l-109 94l-108 -94h-52z" />
    <glyph glyph-name="edieresis" unicode="&#xeb;" horiz-adv-x="552" 
d="M143 677h88v-94h-88v94zM325 677h89v-94h-89v94zM423 309q-5 71 -39 114.5t-100 43.5q-27 0 -52 -9.5t-45 -29t-34 -49t-19 -70.5h289zM285 -11q-47 0 -90 17t-76 51.5t-53 86t-20 120.5q0 72 21.5 124t56 85.5t77 49.5t84.5 16q47 0 87 -16.5t69.5 -51t46.5 -87
t17 -124.5v-18h-373q1 -45 14 -79t34 -57t49.5 -35t61.5 -12q57 0 93 22t66 64l50 -44q-37 -53 -88.5 -82.5t-126.5 -29.5z" />
    <glyph glyph-name="igrave" unicode="&#xec;" horiz-adv-x="250" 
d="M-36 743h105l94 -158h-57zM82 528h86v-528h-86v528z" />
    <glyph glyph-name="iacute" unicode="&#xed;" horiz-adv-x="250" 
d="M82 0zM82 528h86v-528h-86v528zM195 743h105l-142 -158h-57z" />
    <glyph glyph-name="icircumflex" unicode="&#xee;" horiz-adv-x="250" 
d="M0 0zM82 528h86v-528h-86v528zM94 743h63l129 -161h-52l-109 94l-108 -94h-52z" />
    <glyph glyph-name="idieresis" unicode="&#xef;" horiz-adv-x="250" 
d="M-11 677h88v-94h-88v94zM171 677h89v-94h-89v94zM82 528h86v-528h-86v528z" />
    <glyph glyph-name="eth" unicode="&#xf0;" horiz-adv-x="583" 
d="M292 60q73 0 115.5 53t42.5 143q0 41 -11 76t-31 60t-49.5 39t-66.5 14q-74 0 -116.5 -50.5t-42.5 -139.5q0 -41 10.5 -76.5t30.5 -62t49.5 -41.5t68.5 -15zM292 -11q-52 0 -97 18.5t-78 52.5t-51.5 83.5t-18.5 110.5q0 63 18 111.5t49.5 81t73.5 49.5t90 17
q47 0 91.5 -23.5t71.5 -63.5q-11 44 -30 87t-54 82l-103 -40l-26 54l86 33q-17 16 -35 29t-39 27l42 53q28 -16 53.5 -34.5t48.5 -40.5l97 39l25 -55l-80 -33q51 -64 80.5 -152.5t29.5 -211.5q0 -64 -18.5 -114.5t-51.5 -86t-77.5 -54.5t-96.5 -19z" />
    <glyph glyph-name="ntilde" unicode="&#xf1;" horiz-adv-x="588" 
d="M76 0zM76 528h87v-79q17 17 38 33t46 29t53.5 20.5t60.5 7.5q76 0 116 -41.5t40 -116.5v-381h-86v362q0 53 -23 78t-74 25q-48 0 -88.5 -23t-82.5 -62v-380h-87v528zM375 580q-22 0 -42 9t-38 19.5t-34.5 19t-31.5 8.5q-22 0 -31.5 -12.5t-9.5 -41.5h-53q0 63 23.5 91
t68.5 28q22 0 42 -8.5t38 -19t34.5 -19.5t32.5 -9q21 0 31 12.5t10 41.5h51q0 -62 -23.5 -90.5t-67.5 -28.5z" />
    <glyph glyph-name="ograve" unicode="&#xf2;" horiz-adv-x="583" 
d="M134 743h105l94 -158h-57zM292 62q38 0 67 14.5t49.5 41t31 64t10.5 82.5q0 41 -10 77.5t-29.5 64t-49.5 43.5t-69 16q-38 0 -67.5 -14.5t-50 -41t-31 -63.5t-10.5 -82q0 -42 10 -79t29.5 -64t49.5 -43t70 -16zM292 -11q-48 0 -92.5 17.5t-78.5 52t-54.5 86t-20.5 119.5
t20 119.5t54 86t78.5 52t93.5 17.5q48 0 92.5 -17.5t78.5 -52t54 -86t20 -119.5t-20 -119.5t-54 -86t-78.5 -52t-92.5 -17.5z" />
    <glyph glyph-name="oacute" unicode="&#xf3;" horiz-adv-x="583" 
d="M46 0zM292 62q38 0 67 14.5t49.5 41t31 64t10.5 82.5q0 41 -10 77.5t-29.5 64t-49.5 43.5t-69 16q-38 0 -67.5 -14.5t-50 -41t-31 -63.5t-10.5 -82q0 -42 10 -79t29.5 -64t49.5 -43t70 -16zM292 -11q-48 0 -92.5 17.5t-78.5 52t-54.5 86t-20.5 119.5t20 119.5t54 86
t78.5 52t93.5 17.5q48 0 92.5 -17.5t78.5 -52t54 -86t20 -119.5t-20 -119.5t-54 -86t-78.5 -52t-92.5 -17.5zM342 743h105l-142 -158h-57z" />
    <glyph glyph-name="ocircumflex" unicode="&#xf4;" horiz-adv-x="583" 
d="M46 0zM292 62q38 0 67 14.5t49.5 41t31 64t10.5 82.5q0 41 -10 77.5t-29.5 64t-49.5 43.5t-69 16q-38 0 -67.5 -14.5t-50 -41t-31 -63.5t-10.5 -82q0 -42 10 -79t29.5 -64t49.5 -43t70 -16zM292 -11q-48 0 -92.5 17.5t-78.5 52t-54.5 86t-20.5 119.5t20 119.5t54 86
t78.5 52t93.5 17.5q48 0 92.5 -17.5t78.5 -52t54 -86t20 -119.5t-20 -119.5t-54 -86t-78.5 -52t-92.5 -17.5zM260 743h63l129 -161h-52l-109 94l-108 -94h-52z" />
    <glyph glyph-name="otilde" unicode="&#xf5;" horiz-adv-x="583" 
d="M46 0zM292 62q38 0 67 14.5t49.5 41t31 64t10.5 82.5q0 41 -10 77.5t-29.5 64t-49.5 43.5t-69 16q-38 0 -67.5 -14.5t-50 -41t-31 -63.5t-10.5 -82q0 -42 10 -79t29.5 -64t49.5 -43t70 -16zM292 -11q-48 0 -92.5 17.5t-78.5 52t-54.5 86t-20.5 119.5t20 119.5t54 86
t78.5 52t93.5 17.5q48 0 92.5 -17.5t78.5 -52t54 -86t20 -119.5t-20 -119.5t-54 -86t-78.5 -52t-92.5 -17.5zM367 580q-22 0 -42 9t-38 19.5t-34.5 19t-31.5 8.5q-22 0 -31.5 -12.5t-9.5 -41.5h-53q0 63 23.5 91t68.5 28q22 0 42 -8.5t38 -19t34.5 -19.5t32.5 -9
q21 0 31 12.5t10 41.5h51q0 -62 -23.5 -90.5t-67.5 -28.5z" />
    <glyph glyph-name="odieresis" unicode="&#xf6;" horiz-adv-x="583" 
d="M155 677h88v-94h-88v94zM337 677h89v-94h-89v94zM292 62q38 0 67 14.5t49.5 41t31 64t10.5 82.5q0 41 -10 77.5t-29.5 64t-49.5 43.5t-69 16q-38 0 -67.5 -14.5t-50 -41t-31 -63.5t-10.5 -82q0 -42 10 -79t29.5 -64t49.5 -43t70 -16zM292 -11q-48 0 -92.5 17.5t-78.5 52
t-54.5 86t-20.5 119.5t20 119.5t54 86t78.5 52t93.5 17.5q48 0 92.5 -17.5t78.5 -52t54 -86t20 -119.5t-20 -119.5t-54 -86t-78.5 -52t-92.5 -17.5z" />
    <glyph glyph-name="divide" unicode="&#xf7;" horiz-adv-x="638" 
d="M270 198h94v-92h-94v92zM66 369h507v-72h-507v72zM270 559h94v-92h-94v92z" />
    <glyph glyph-name="oslash" unicode="&#xf8;" horiz-adv-x="583" 
d="M195 92q19 -16 43.5 -25t53.5 -9q38 0 67.5 15t50 42.5t31.5 65.5t11 83q0 36 -7.5 69t-22.5 59zM388 433q-19 17 -43 26t-53 9q-38 0 -68 -15t-50.5 -42t-31.5 -64.5t-11 -82.5q0 -37 7.5 -70.5t23.5 -61.5zM475 457q29 -35 45.5 -82.5t16.5 -110.5q0 -68 -20 -119.5
t-54 -86t-78.5 -52t-92.5 -17.5q-38 0 -74.5 11t-66.5 33l-54 -68l-42 36l55 69q-29 35 -46.5 83t-17.5 111q0 68 20 119.5t54 86t78.5 52t93.5 17.5q80 0 142 -44l52 66l43 -36z" />
    <glyph glyph-name="ugrave" unicode="&#xf9;" horiz-adv-x="588" 
d="M138 743h105l94 -158h-57zM227 -10q-76 0 -116 41t-40 116v381h86v-363q0 -53 23 -78t74 -25q48 0 88.5 23t82.5 62v381h87v-528h-87v79q-17 -17 -38 -33t-46 -28.5t-53.5 -20t-60.5 -7.5z" />
    <glyph glyph-name="uacute" unicode="&#xfa;" horiz-adv-x="588" 
d="M71 0zM227 -10q-76 0 -116 41t-40 116v381h86v-363q0 -53 23 -78t74 -25q48 0 88.5 23t82.5 62v381h87v-528h-87v79q-17 -17 -38 -33t-46 -28.5t-53.5 -20t-60.5 -7.5zM341 743h105l-142 -158h-57z" />
    <glyph glyph-name="ucircumflex" unicode="&#xfb;" horiz-adv-x="588" 
d="M71 0zM227 -10q-76 0 -116 41t-40 116v381h86v-363q0 -53 23 -78t74 -25q48 0 88.5 23t82.5 62v381h87v-528h-87v79q-17 -17 -38 -33t-46 -28.5t-53.5 -20t-60.5 -7.5zM260 743h63l129 -161h-52l-109 94l-108 -94h-52z" />
    <glyph glyph-name="udieresis" unicode="&#xfc;" horiz-adv-x="588" 
d="M157 677h88v-94h-88v94zM339 677h89v-94h-89v94zM227 -10q-76 0 -116 41t-40 116v381h86v-363q0 -53 23 -78t74 -25q48 0 88.5 23t82.5 62v381h87v-528h-87v79q-17 -17 -38 -33t-46 -28.5t-53.5 -20t-60.5 -7.5z" />
    <glyph glyph-name="yacute" unicode="&#xfd;" horiz-adv-x="533" 
d="M278 743h105l-142 -158h-57zM106 -203q-35 0 -58.5 4t-40.5 9l20 69q11 -3 30.5 -6t47.5 -3q41 0 63 18t38 57l20 52l-204 531h91l155 -427h2l155 427h87l-226 -588q-13 -35 -28.5 -61.5t-36.5 -44.5t-48.5 -27.5t-66.5 -9.5z" />
    <glyph glyph-name="thorn" unicode="&#xfe;" horiz-adv-x="599" 
d="M315 62q69 0 109.5 48.5t40.5 153.5q0 101 -42.5 151t-106.5 50q-46 0 -83.5 -22.5t-70.5 -58.5v-242q71 -80 153 -80zM76 740h86v-285q30 33 72 58.5t102 25.5q45 0 84.5 -17t68.5 -51t45.5 -85.5t16.5 -120.5t-17 -120.5t-47 -85t-71 -50.5t-89 -17q-49 0 -90 20.5
t-75 55.5v-268h-86v940z" />
    <glyph glyph-name="ydieresis" unicode="&#xff;" horiz-adv-x="533" 
d="M7 0zM106 -203q-35 0 -58.5 4t-40.5 9l20 69q11 -3 30.5 -6t47.5 -3q41 0 63 18t38 57l20 52l-204 531h91l155 -427h2l155 427h87l-226 -588q-13 -35 -28.5 -61.5t-36.5 -44.5t-48.5 -27.5t-66.5 -9.5zM133 677h88v-94h-88v94zM315 677h89v-94h-89v94z" />
    <glyph glyph-name="dotlessi" unicode="&#x131;" horiz-adv-x="250" 
d="M82 528h86v-528h-86v528z" />
    <glyph glyph-name="Lslash" unicode="&#x141;" horiz-adv-x="569" 
d="M92 342l-85 -22v71l85 23v326h88v-303l155 42v-72l-155 -41v-286h355v-80h-443v342z" />
    <glyph glyph-name="lslash" unicode="&#x142;" horiz-adv-x="304" 
d="M109 337l-88 -23v67l88 24v335h86v-313l90 24v-67l-90 -24v-360h-86v337z" />
    <glyph glyph-name="OE" unicode="&#x152;" horiz-adv-x="1121" 
d="M375 65q50 0 92 20.5t72.5 59.5t47.5 96t17 129t-17 128.5t-47.5 95.5t-72.5 59.5t-92 20.5q-51 0 -93.5 -20.5t-73.5 -59.5t-48 -95.5t-17 -128.5t17 -129t48 -96t73.5 -59.5t93.5 -20.5zM375 -14q-67 0 -125.5 26.5t-101.5 76t-68 121t-25 160.5t25 160.5t68 121
t101.5 76t125.5 26.5q81 0 140.5 -38.5t94.5 -102.5v127h447v-81h-366v-231h272v-79h-272v-269h386v-80h-467v129q-35 -64 -94.5 -103.5t-140.5 -39.5z" />
    <glyph glyph-name="oe" unicode="&#x153;" horiz-adv-x="947" 
d="M290 61q38 0 67 14.5t49 41.5t30.5 64.5t10.5 82.5q0 41 -9.5 77.5t-29 64t-49 43.5t-69.5 16q-38 0 -67 -14.5t-49 -41t-30.5 -63.5t-10.5 -82q0 -42 9.5 -79t29 -64.5t49 -43.5t69.5 -16zM819 309q-5 71 -39 114.5t-100 43.5q-27 0 -51.5 -9.5t-44.5 -29t-34 -49
t-19 -70.5h288zM290 -11q-48 0 -92.5 17.5t-78 52t-53.5 86t-20 119.5t20 119.5t53.5 86t77.5 52t93 17.5q69 0 121 -35.5t78 -94.5q12 29 32 52.5t45 41t54.5 27t60.5 9.5q45 0 85 -16.5t70 -51t47.5 -87t17.5 -124.5v-15h-371q1 -46 13.5 -80.5t33.5 -58t49.5 -35.5
t61.5 -12q56 0 91.5 22.5t65.5 63.5l51 -44q-37 -53 -88.5 -82.5t-126.5 -29.5q-31 0 -61 9t-55.5 26t-45.5 40.5t-32 51.5q-27 -57 -77.5 -92t-119.5 -35z" />
    <glyph glyph-name="Scaron" unicode="&#x160;" horiz-adv-x="657" 
d="M54 0zM334 -14q-106 0 -178.5 52.5t-101.5 140.5l74 33q28 -75 81.5 -111.5t128.5 -36.5q78 0 125.5 31.5t47.5 90.5q0 27 -8.5 48.5t-29.5 39.5t-57 34t-91 33q-58 18 -103.5 36t-77 42t-48.5 57.5t-17 81.5q0 42 17.5 78t49 62.5t75 41t96.5 14.5t95 -12.5t74 -35
t55 -53t37 -65.5l-70 -39q-30 67 -78 96t-114 29q-71 0 -110.5 -30.5t-39.5 -78.5q0 -30 10 -50.5t33 -37t60.5 -31.5t91.5 -32q56 -17 100 -36t74.5 -44.5t46.5 -60t16 -81.5q0 -46 -19 -84t-54 -65t-83.5 -42t-107.5 -15zM167 956h53l108 -94l108 94h52l-129 -161h-63z
" />
    <glyph glyph-name="scaron" unicode="&#x161;" horiz-adv-x="512" 
d="M95 747h53l108 -94l108 94h52l-129 -161h-63zM254 -10q-72 0 -128 25.5t-88 64.5l52 52q30 -32 70.5 -52.5t94.5 -20.5q62 0 94.5 21t32.5 62q0 40 -34 59t-102 35q-42 10 -77 22t-59.5 29.5t-38.5 43.5t-14 64q0 30 12.5 56.5t36.5 46t58.5 30.5t77.5 11
q70 0 117.5 -20.5t84.5 -55.5l-45 -57q-30 28 -69 45.5t-84 17.5q-58 0 -82.5 -21.5t-24.5 -49.5q0 -37 31 -54.5t94 -31.5q45 -11 82 -23t63.5 -30.5t41 -45.5t14.5 -68q0 -38 -16 -67t-44.5 -48.5t-67 -29.5t-83.5 -10z" />
    <glyph glyph-name="Ydieresis" unicode="&#x178;" horiz-adv-x="631" 
d="M180 878h88v-94h-88v94zM362 878h89v-94h-89v94zM271 324l-249 416h94l201 -341l200 341h92l-250 -416v-324h-88v324z" />
    <glyph glyph-name="Zcaron" unicode="&#x17d;" horiz-adv-x="630" 
d="M40 0zM40 62l433 604h-405v74h513v-64l-430 -603h430v-73h-541v62zM156 956h53l108 -94l108 94h52l-129 -161h-63z" />
    <glyph glyph-name="zcaron" unicode="&#x17e;" horiz-adv-x="510" 
d="M95 747h53l108 -94l108 94h52l-129 -161h-63zM39 52l309 406h-285v70h393v-54l-310 -405h325v-69h-432v52z" />
    <glyph glyph-name="florin" unicode="&#x192;" horiz-adv-x="349" 
d="M-85 -133q5 -1 16 -1.5t20 -0.5q39 0 65 18t31 61l64 465h-92l9 67h92l16 123q9 69 50.5 106t127.5 37q12 0 27.5 -1.5t22.5 -1.5l-10 -67q-5 1 -16 1.5t-20 0.5q-36 0 -63.5 -15.5t-32.5 -58.5l-16 -124h116l-9 -67h-116l-65 -473q-9 -66 -50 -101.5t-127 -35.5
q-12 0 -27.5 1t-21.5 2z" />
    <glyph glyph-name="circumflex" unicode="&#x2c6;" horiz-adv-x="518" 
d="M227 743h63l129 -161h-52l-109 94l-108 -94h-52z" />
    <glyph glyph-name="caron" unicode="&#x2c7;" horiz-adv-x="518" 
d="M98 747h53l108 -94l108 94h52l-129 -161h-63z" />
    <glyph glyph-name="breve" unicode="&#x2d8;" horiz-adv-x="500" 
d="M250 579q-70 0 -110.5 46t-44.5 122h52q7 -58 34 -81t69 -23t69 23t34 81h52q-4 -76 -44.5 -122t-110.5 -46z" />
    <glyph glyph-name="dotaccent" unicode="&#x2d9;" horiz-adv-x="500" 
d="M200 679h100v-90h-100v90z" />
    <glyph glyph-name="ring" unicode="&#x2da;" horiz-adv-x="540" 
d="M270 617q23 0 37.5 15.5t14.5 39.5q0 23 -14.5 38.5t-37.5 15.5t-37.5 -15.5t-14.5 -38.5q0 -24 14.5 -39.5t37.5 -15.5zM270 577q-42 0 -68.5 27t-26.5 68q0 40 26.5 66.5t68.5 26.5t68.5 -26.5t26.5 -66.5q0 -41 -26.5 -68t-68.5 -27z" />
    <glyph glyph-name="ogonek" unicode="&#x2db;" horiz-adv-x="500" 
d="M253 -187q-46 0 -71.5 20.5t-25.5 56.5q0 32 23.5 59.5t58.5 50.5h54q-34 -23 -51.5 -46.5t-17.5 -49.5q0 -21 11.5 -34t39.5 -13q26 0 48 7t45 18l18 -31q-31 -17 -64 -27.5t-68 -10.5z" />
    <glyph glyph-name="tilde" unicode="&#x2dc;" horiz-adv-x="508" 
d="M328 580q-22 0 -42 9t-38 19.5t-34.5 19t-31.5 8.5q-22 0 -31.5 -12.5t-9.5 -41.5h-53q0 63 23.5 91t68.5 28q22 0 42 -8.5t38 -19t34.5 -19.5t32.5 -9q21 0 31 12.5t10 41.5h51q0 -62 -23.5 -90.5t-67.5 -28.5z" />
    <glyph glyph-name="hungarumlaut" unicode="&#x2dd;" horiz-adv-x="509" 
d="M173 743h106l-145 -158h-58zM342 743h106l-147 -158h-59z" />
    <glyph glyph-name="Delta" unicode="&#x394;" horiz-adv-x="589" 
d="M380 -201q-5 0 -13 0.5t-15.5 1t-14 1.5t-9.5 1v65q6 -2 15.5 -3t19.5 -1q25 0 39 14.5t14 46.5v603h86v-609q0 -27 -6 -49t-20 -38t-37.5 -24.5t-58.5 -8.5zM117 457h-92v71h92v71q0 67 37 105t115 38q12 0 26.5 -1.5t21.5 -1.5v-70q-7 2 -17 2h-18q-36 0 -57.5 -17.5
t-21.5 -56.5v-69h110v-71h-110v-457h-86v457zM415 725h88v-87h-88v87z" />
    <glyph glyph-name="Delta" unicode="&#x2206;" horiz-adv-x="589" 
d="M380 -201q-5 0 -13 0.5t-15.5 1t-14 1.5t-9.5 1v65q6 -2 15.5 -3t19.5 -1q25 0 39 14.5t14 46.5v603h86v-609q0 -27 -6 -49t-20 -38t-37.5 -24.5t-58.5 -8.5zM117 457h-92v71h92v71q0 67 37 105t115 38q12 0 26.5 -1.5t21.5 -1.5v-70q-7 2 -17 2h-18q-36 0 -57.5 -17.5
t-21.5 -56.5v-69h110v-71h-110v-457h-86v457zM415 725h88v-87h-88v87z" />
    <glyph glyph-name="Omega" unicode="&#x3a9;" 
d="M349 228v110h-111l6 -104zM412 228l104 6l6 104h-110v-110zM349 512l-105 -6l-6 -105h111v111zM412 512v-111h110l-6 105zM153 168v72l31 -2l6 100l-180 -15v93l180 -15l-6 102l-31 -2v72l27 -2l-2 26h72l-2 -30l101 -7l-15 180h93l-15 -180l101 7l-2 30h72l-2 -26l27 2
v-72l-31 2l-7 -102l180 15v-93l-180 15l7 -100l31 2v-72l-27 2l2 -28h-72l2 32l-101 6l15 -180h-93l15 180l-101 -6l2 -32h-72l2 28z" />
    <glyph glyph-name="Omega" unicode="&#x2126;" 
d="M349 228v110h-111l6 -104zM412 228l104 6l6 104h-110v-110zM349 512l-105 -6l-6 -105h111v111zM412 512v-111h110l-6 105zM153 168v72l31 -2l6 100l-180 -15v93l180 -15l-6 102l-31 -2v72l27 -2l-2 26h72l-2 -30l101 -7l-15 180h93l-15 -180l101 7l-2 30h72l-2 -26l27 2
v-72l-31 2l-7 -102l180 15v-93l-180 15l7 -100l31 2v-72l-27 2l2 -28h-72l2 32l-101 6l15 -180h-93l15 180l-101 -6l2 -32h-72l2 28z" />
    <glyph glyph-name="pi" unicode="&#x3c0;" horiz-adv-x="864" 
d="M449 389q45 0 69.5 16t24.5 55q0 38 -25 54t-70 16h-86v-141h87zM303 161v421h148q72 0 111.5 -29.5t39.5 -89.5q0 -65 -42 -95t-114 -30h-84v-177h-59zM433 32q70 0 130.5 26.5t105 72t70 107t25.5 131.5q0 71 -25.5 132.5t-70.5 107.5t-105.5 72.5t-130.5 26.5
t-130.5 -26.5t-105.5 -72t-70.5 -107t-25.5 -131.5t25.5 -132t70.5 -108t106 -72.5t131 -26.5zM432 -14q-81 0 -150.5 30t-121 81.5t-81 121.5t-29.5 150t29.5 150.5t81.5 122.5t121.5 82t150.5 30q80 0 149.5 -30t121 -81.5t81 -121.5t29.5 -150t-29.5 -150.5t-81.5 -122.5
t-121.5 -82t-149.5 -30z" />
    <glyph glyph-name="endash" unicode="&#x2013;" horiz-adv-x="645" 
d="M65 351h515v-76h-515v76z" />
    <glyph glyph-name="emdash" unicode="&#x2014;" horiz-adv-x="928" 
d="M65 351h798v-76h-798v76z" />
    <glyph glyph-name="quoteleft" unicode="&#x2018;" horiz-adv-x="271" 
d="M85 627l52 113h40l-28 -105h36v-105h-100v97z" />
    <glyph glyph-name="quoteright" unicode="&#x2019;" horiz-adv-x="271" 
d="M121 635h-36v105h100v-97l-51 -113h-40z" />
    <glyph glyph-name="quotesinglbase" unicode="&#x201a;" horiz-adv-x="271" 
d="M121 0h-36v105h100v-96l-51 -114h-40z" />
    <glyph glyph-name="quotedblleft" unicode="&#x201c;" horiz-adv-x="465" 
d="M85 627l52 113h40l-28 -105h36v-105h-100v97zM280 627l52 113h39l-27 -105h36v-105h-100v97z" />
    <glyph glyph-name="quotedblright" unicode="&#x201d;" horiz-adv-x="465" 
d="M121 635h-36v105h100v-97l-51 -113h-40zM316 635h-36v105h100v-97l-52 -113h-39z" />
    <glyph glyph-name="quotedblbase" unicode="&#x201e;" horiz-adv-x="465" 
d="M121 0h-36v105h100v-96l-51 -114h-40zM316 0h-36v105h100v-96l-52 -114h-39z" />
    <glyph glyph-name="dagger" unicode="&#x2020;" horiz-adv-x="566" 
d="M251 413l-206 -11v82l206 -13l-15 269h93l-15 -269l206 13v-82l-206 11l15 -613h-93z" />
    <glyph glyph-name="daggerdbl" unicode="&#x2021;" horiz-adv-x="566" 
d="M251 33l-196 -13v80l196 -12l-11 184l11 180l-196 -11v79l196 -12l-15 232h93l-15 -232l196 12v-79l-196 11l11 -180l-11 -184l196 12v-80l-196 13l15 -233h-93z" />
    <glyph glyph-name="bullet" unicode="&#x2022;" horiz-adv-x="463" 
d="M231 229q-53 0 -87 34t-34 87q0 54 34 88t87 34q54 0 88 -34t34 -88q0 -53 -34 -87t-88 -34z" />
    <glyph glyph-name="ellipsis" unicode="&#x2026;" horiz-adv-x="812" 
d="M84 105h103v-105h-103v105zM354 105h103v-105h-103v105zM625 105h103v-105h-103v105z" />
    <glyph glyph-name="perthousand" unicode="&#x2030;" horiz-adv-x="1411" 
d="M765 55q24 0 42 12t30 34t18 51.5t6 63.5q0 74 -24.5 117t-72.5 43t-72 -45t-24 -114q0 -74 24.5 -118t72.5 -44zM1180 55q24 0 42 12t30 34t18 51.5t6 63.5q0 74 -24 117t-72 43t-72.5 -45t-24.5 -114q0 -74 24.5 -118t72.5 -44zM232 365q47 0 71 45t24 114
q0 74 -24.5 117.5t-71.5 43.5q-48 0 -72 -45t-24 -114q0 -74 24.5 -117.5t72.5 -43.5zM764 -10q-41 0 -73 16.5t-54 46t-33.5 71t-11.5 90.5q0 52 12.5 94t35 72t54.5 46t72 16q39 0 71 -16t54 -45t34 -71t12 -93q0 -49 -11.5 -91t-34 -72t-54.5 -47t-73 -17zM1180 -10
q-41 0 -73 16.5t-54 46t-33.5 71t-11.5 90.5q0 52 12 94t34.5 72t54.5 46t72 16q80 0 125.5 -61t45.5 -164q0 -49 -11.5 -91t-34 -72t-54 -47t-72.5 -17zM680 740h78l-442 -740h-78zM231 299q-42 0 -74 16.5t-54 46t-33.5 70.5t-11.5 91q0 52 12.5 94t35 72t54.5 46t72 16
q80 0 125.5 -61t45.5 -164q0 -50 -11.5 -91.5t-33.5 -71.5t-54 -47t-73 -17z" />
    <glyph glyph-name="guilsinglleft" unicode="&#x2039;" horiz-adv-x="333" 
d="M41 265l151 263h87l-147 -263l147 -265h-87z" />
    <glyph glyph-name="guilsinglright" unicode="&#x203a;" horiz-adv-x="333" 
d="M201 265l-148 263h87l152 -263l-152 -265h-87z" />
    <glyph glyph-name="fraction" unicode="&#x2044;" horiz-adv-x="480" 
d="M418 740h78l-433 -740h-79z" />
    <glyph glyph-name="fraction" unicode="&#x2215;" horiz-adv-x="480" 
d="M418 740h78l-433 -740h-79z" />
    <glyph glyph-name="Euro" unicode="&#x20ac;" horiz-adv-x="721" 
d="M21 411v65h124q11 72 37 124t62.5 86.5t81.5 51t93 16.5q53 0 92 -15t68 -43t48.5 -66t32.5 -85l-79 -25q-11 38 -23.5 67t-31 49t-44 30.5t-63.5 10.5q-70 0 -121 -48.5t-68 -152.5h214v-65h-221q-1 -8 -1 -17v-18q0 -14 0.5 -26.5t0.5 -24.5h221v-66h-213
q33 -197 190 -197q71 0 109.5 41.5t60.5 125.5l79 -23q-13 -49 -35 -90t-53 -69.5t-71 -44.5t-91 -16t-96 16.5t-81 50.5t-61 85t-36 121h-125v66h117q-1 12 -1 24v24v19.5t1 18.5h-117z" />
    <glyph glyph-name="trademark" unicode="&#x2122;" horiz-adv-x="885" 
d="M158 685h-128v55h321v-55h-129v-368h-64v368zM422 740h84l118 -340l119 340h84v-423h-63v322l-115 -322h-53l-115 321v-321h-59v423z" />
    <glyph glyph-name="partialdiff" unicode="&#x2202;" 
d="M349 228v110h-111l6 -104zM412 228l104 6l6 104h-110v-110zM349 512l-105 -6l-6 -105h111v111zM412 512v-111h110l-6 105zM153 168v72l31 -2l6 100l-180 -15v93l180 -15l-6 102l-31 -2v72l27 -2l-2 26h72l-2 -30l101 -7l-15 180h93l-15 -180l101 7l-2 30h72l-2 -26l27 2
v-72l-31 2l-7 -102l180 15v-93l-180 15l7 -100l31 2v-72l-27 2l2 -28h-72l2 32l-101 6l15 -180h-93l15 180l-101 -6l2 -32h-72l2 28z" />
    <glyph glyph-name="product" unicode="&#x220f;" horiz-adv-x="543" 
d="M274 539q26 0 40.5 9.5t14.5 32.5q0 21 -15 30t-41 9h-47v-81h48zM185 400v257h91q45 0 68.5 -19.5t23.5 -55.5q0 -31 -14 -47.5t-39 -23.5l60 -111l-44 1l-57 105h-48v-106h-41zM272 324q41 0 77 15.5t62.5 42.5t42 63t15.5 78t-15.5 78.5t-42 63.5t-62.5 43t-78 16
q-41 0 -77 -15.5t-62.5 -42.5t-41.5 -63.5t-15 -77.5q0 -42 15 -78.5t41.5 -64t62.5 -43t78 -15.5zM271 291q-48 0 -90.5 18t-73.5 49.5t-49 73.5t-18 91t18 91.5t49.5 74t74 49.5t90.5 18t90.5 -18t73.5 -49t49 -73.5t18 -90.5q0 -49 -18 -92t-49.5 -74.5t-73.5 -49.5
t-91 -18z" />
    <glyph glyph-name="summation" unicode="&#x2211;" 
d="M349 228v110h-111l6 -104zM412 228l104 6l6 104h-110v-110zM349 512l-105 -6l-6 -105h111v111zM412 512v-111h110l-6 105zM153 168v72l31 -2l6 100l-180 -15v93l180 -15l-6 102l-31 -2v72l27 -2l-2 26h72l-2 -30l101 -7l-15 180h93l-15 -180l101 7l-2 30h72l-2 -26l27 2
v-72l-31 2l-7 -102l180 15v-93l-180 15l7 -100l31 2v-72l-27 2l2 -28h-72l2 32l-101 6l15 -180h-93l15 180l-101 -6l2 -32h-72l2 28z" />
    <glyph glyph-name="minus" unicode="&#x2212;" horiz-adv-x="638" 
d="M66 369h507v-72h-507v72z" />
    <glyph glyph-name="radical" unicode="&#x221a;" horiz-adv-x="598" 
d="M23 525h95l142 -411h2l217 625h95l-269 -741h-90z" />
    <glyph glyph-name="infinity" unicode="&#x221e;" horiz-adv-x="881" 
d="M714 528h86v-528h-86v528zM117 457h-92v71h92v71q0 67 37 105t115 38q13 0 27 -1.5t21 -1.5v-70q-7 2 -17 2h-18q-36 0 -57.5 -17.5t-21.5 -56.5v-69h213v68q0 67 37 106.5t115 39.5q11 0 25.5 -1.5t21.5 -1.5v-70q-6 2 -16.5 2h-18.5q-36 0 -57 -17.5t-21 -56.5v-69h109
v-71h-109v-457h-86v457h-213v-457h-86v457zM713 725h88v-87h-88v87z" />
    <glyph glyph-name="integral" unicode="&#x222b;" 
d="M349 228v110h-111l6 -104zM412 228l104 6l6 104h-110v-110zM349 512l-105 -6l-6 -105h111v111zM412 512v-111h110l-6 105zM153 168v72l31 -2l6 100l-180 -15v93l180 -15l-6 102l-31 -2v72l27 -2l-2 26h72l-2 -30l101 -7l-15 180h93l-15 -180l101 7l-2 30h72l-2 -26l27 2
v-72l-31 2l-7 -102l180 15v-93l-180 15l7 -100l31 2v-72l-27 2l2 -28h-72l2 32l-101 6l15 -180h-93l15 180l-101 -6l2 -32h-72l2 28z" />
    <glyph glyph-name="approxequal" unicode="&#x2248;" 
d="M349 228v110h-111l6 -104zM412 228l104 6l6 104h-110v-110zM349 512l-105 -6l-6 -105h111v111zM412 512v-111h110l-6 105zM153 168v72l31 -2l6 100l-180 -15v93l180 -15l-6 102l-31 -2v72l27 -2l-2 26h72l-2 -30l101 -7l-15 180h93l-15 -180l101 7l-2 30h72l-2 -26l27 2
v-72l-31 2l-7 -102l180 15v-93l-180 15l7 -100l31 2v-72l-27 2l2 -28h-72l2 32l-101 6l15 -180h-93l15 180l-101 -6l2 -32h-72l2 28z" />
    <glyph glyph-name="notequal" unicode="&#x2260;" horiz-adv-x="645" 
d="M117 457h-92v71h92v71q0 67 37 105t115 38q13 0 27 -1.5t21 -1.5v-69q-7 1 -17 1.5t-18 0.5q-36 0 -57.5 -18t-21.5 -56v-70h213v69q0 67 37 106t121 39q12 0 27.5 -1.5t22.5 -1.5v-70q-7 2 -18 2.5t-19 0.5q-37 0 -61 -15.5t-24 -58.5v-70h116v-71h-116v-457h-86v457
h-213v-457h-86v457z" />
    <glyph glyph-name="lessequal" unicode="&#x2264;" 
d="M349 228v110h-111l6 -104zM412 228l104 6l6 104h-110v-110zM349 512l-105 -6l-6 -105h111v111zM412 512v-111h110l-6 105zM153 168v72l31 -2l6 100l-180 -15v93l180 -15l-6 102l-31 -2v72l27 -2l-2 26h72l-2 -30l101 -7l-15 180h93l-15 -180l101 7l-2 30h72l-2 -26l27 2
v-72l-31 2l-7 -102l180 15v-93l-180 15l7 -100l31 2v-72l-27 2l2 -28h-72l2 32l-101 6l15 -180h-93l15 180l-101 -6l2 -32h-72l2 28z" />
    <glyph glyph-name="greaterequal" unicode="&#x2265;" 
d="M349 228v110h-111l6 -104zM412 228l104 6l6 104h-110v-110zM349 512l-105 -6l-6 -105h111v111zM412 512v-111h110l-6 105zM153 168v72l31 -2l6 100l-180 -15v93l180 -15l-6 102l-31 -2v72l27 -2l-2 26h72l-2 -30l101 -7l-15 180h93l-15 -180l101 7l-2 30h72l-2 -26l27 2
v-72l-31 2l-7 -102l180 15v-93l-180 15l7 -100l31 2v-72l-27 2l2 -28h-72l2 32l-101 6l15 -180h-93l15 180l-101 -6l2 -32h-72l2 28z" />
    <glyph glyph-name="lozenge" unicode="&#x25ca;" 
d="M349 228v110h-111l6 -104zM412 228l104 6l6 104h-110v-110zM349 512l-105 -6l-6 -105h111v111zM412 512v-111h110l-6 105zM153 168v72l31 -2l6 100l-180 -15v93l180 -15l-6 102l-31 -2v72l27 -2l-2 26h72l-2 -30l101 -7l-15 180h93l-15 -180l101 7l-2 30h72l-2 -26l27 2
v-72l-31 2l-7 -102l180 15v-93l-180 15l7 -100l31 2v-72l-27 2l2 -28h-72l2 32l-101 6l15 -180h-93l15 180l-101 -6l2 -32h-72l2 28z" />
    <glyph glyph-name="NUL" horiz-adv-x="0" 
 />
    <glyph glyph-name="apple" 
d="M349 228v110h-111l6 -104zM412 228l104 6l6 104h-110v-110zM349 512l-105 -6l-6 -105h111v111zM412 512v-111h110l-6 105zM153 168v72l31 -2l6 100l-180 -15v93l180 -15l-6 102l-31 -2v72l27 -2l-2 26h72l-2 -30l101 -7l-15 180h93l-15 -180l101 7l-2 30h72l-2 -26l27 2
v-72l-31 2l-7 -102l180 15v-93l-180 15l7 -100l31 2v-72l-27 2l2 -28h-72l2 32l-101 6l15 -180h-93l15 180l-101 -6l2 -32h-72l2 28z" />
    <glyph glyph-name=".ttfautohint" 
d="M0 0z" />
    </font>
</defs>
</svg>
